<?xml version="1.0" encoding="UTF-8" standalone="no"?>
<!-- Creator: CorelDRAW -->
<svg
   xmlns:dc="http://purl.org/dc/elements/1.1/"
   xmlns:cc="http://creativecommons.org/ns#"
   xmlns:rdf="http://www.w3.org/1999/02/22-rdf-syntax-ns#"
   xmlns:svg="http://www.w3.org/2000/svg"
   xmlns="http://www.w3.org/2000/svg"
   xmlns:sodipodi="http://sodipodi.sourceforge.net/DTD/sodipodi-0.dtd"
   xmlns:inkscape="http://www.inkscape.org/namespaces/inkscape"
   xml:space="preserve"
   width="75mm"
   height="25mm"
   style="shape-rendering:geometricPrecision; text-rendering:geometricPrecision; image-rendering:optimizeQuality; fill-rule:evenodd; clip-rule:evenodd"
   viewBox="0 0 75 28.8462"
   id="svg2"
   sodipodi:version="0.32"
   inkscape:version="0.46"
   sodipodi:docname="Playstation2-Logo.svg"
   inkscape:output_extension="org.inkscape.output.svg.inkscape"><metadata
   id="metadata821"><rdf:RDF><cc:Work
       rdf:about=""><dc:format>image/svg+xml</dc:format><dc:type
         rdf:resource="http://purl.org/dc/dcmitype/StillImage" /></cc:Work></rdf:RDF></metadata><sodipodi:namedview
   inkscape:window-height="750"
   inkscape:window-width="1280"
   inkscape:pageshadow="2"
   inkscape:pageopacity="0.0"
   guidetolerance="10.0"
   gridtolerance="10.0"
   objecttolerance="10.0"
   borderopacity="1.0"
   bordercolor="#666666"
   pagecolor="#ffffff"
   id="base"
   showgrid="false"
   inkscape:zoom="2.047052"
   inkscape:cx="132.87401"
   inkscape:cy="44.29134"
   inkscape:window-x="-8"
   inkscape:window-y="-8"
   inkscape:current-layer="svg2" />
 <defs
   id="defs4"><inkscape:perspective
   sodipodi:type="inkscape:persp3d"
   inkscape:vp_x="0 : 44.29134 : 1"
   inkscape:vp_y="0 : 1000 : 0"
   inkscape:vp_z="265.74802 : 44.29134 : 1"
   inkscape:persp3d-origin="132.87401 : 29.52756 : 1"
   id="perspective823" />
  <style
   type="text/css"
   id="style6">
   
    .fil31 {fill:#0065A7}
    .fil32 {fill:#0065A8}
    .fil33 {fill:#0067A9}
    .fil34 {fill:#0068AA}
    .fil35 {fill:#0069AB}
    .fil36 {fill:#006AAC}
    .fil37 {fill:#006BAD}
    .fil38 {fill:#006CAF}
    .fil39 {fill:#006DAF}
    .fil40 {fill:#006FB1}
    .fil41 {fill:#006FB2}
    .fil42 {fill:#0071B3}
    .fil43 {fill:#0072B4}
    .fil44 {fill:#0073B5}
    .fil45 {fill:#0074B6}
    .fil46 {fill:#0075B7}
    .fil47 {fill:#0075B8}
    .fil48 {fill:#0077B9}
    .fil49 {fill:#0078BB}
    .fil50 {fill:#0079BB}
    .fil51 {fill:#007ABD}
    .fil52 {fill:#007BBE}
    .fil53 {fill:#007CBF}
    .fil54 {fill:#007DC0}
    .fil55 {fill:#007FC2}
    .fil56 {fill:#0080C3}
    .fil57 {fill:#0081C4}
    .fil58 {fill:#0082C6}
    .fil59 {fill:#0083C7}
    .fil60 {fill:#0085C8}
    .fil61 {fill:#0085C9}
    .fil62 {fill:#0087CB}
    .fil63 {fill:#0088CC}
    .fil64 {fill:#0089CD}
    .fil65 {fill:#008ACE}
    .fil66 {fill:#008BD0}
    .fil67 {fill:#008CD1}
    .fil68 {fill:#008ED3}
    .fil69 {fill:#008ED4}
    .fil70 {fill:#008FD5}
    .fil71 {fill:#0091D7}
    .fil72 {fill:#0092D8}
    .fil73 {fill:#0093DA}
    .fil74 {fill:#0094DB}
    .fil75 {fill:#0095DD}
    .fil76 {fill:#0096DE}
    .fil77 {fill:#0098DF}
    .fil30 {fill:#0464A6}
    .fil29 {fill:#0863A5}
    .fil28 {fill:#0D62A4}
    .fil27 {fill:#1160A3}
    .fil26 {fill:#135FA2}
    .fil25 {fill:#165EA1}
    .fil24 {fill:#185DA0}
    .fil23 {fill:#1B5C9F}
    .fil22 {fill:#1C5B9E}
    .fil21 {fill:#1E599D}
    .fil1 {fill:#1F1A17}
    .fil20 {fill:#20599C}
    .fil19 {fill:#22579B}
    .fil18 {fill:#23569A}
    .fil17 {fill:#245599}
    .fil16 {fill:#255398}
    .fil15 {fill:#265297}
    .fil14 {fill:#275196}
    .fil13 {fill:#285095}
    .fil12 {fill:#294F94}
    .fil11 {fill:#2A4E93}
    .fil10 {fill:#2B4C92}
    .fil9 {fill:#2E4C91}
    .fil8 {fill:#2F4A90}
    .fil7 {fill:#30498F}
    .fil5 {fill:#31468D}
    .fil6 {fill:#31488E}
    .fil4 {fill:#32458C}
    .fil2 {fill:#33438A}
    .fil3 {fill:#33448B}
    .fil0 {fill:white}
   
  </style>
 
  <metadata
   id="CorelCorpID_0Corel-Layer" />
  
  
  
  
  
  
  
  
  
  
  
  
  
  
  
  
  
  
  
  
  
  
  
  
  
  
  
  
  
  
  
  
  
  
  
  
  
  
  
  
  
  
  
  
  
  
  
  
  
  
  
  
  
  
  
  
  
  
  
  
  
  
  
  
  
  
  
  
  
  
  
  
  
  
  
  
  
  
  
  
  
  
  
  
  
  
  
  
  
  
  
  
  
  
  
  
  
  
  
  
  
  
  
  
  
  
  
  
  
  
  
  
  
  
  
  
  
  
  
  
  
  
  
  
  
  
  
  
  
  
  
  
  
  
  
  
  
  
  
  
  
  
  
  
  
  
  
  
  
  
  
  
  
  
  
  
  
  
  
  
  
  
  
  
  
  
  
  
  
  
  
  
  
  
  
  
  
  
  
  
  
  
  
  
  
  
  
  
  
  
  
  
  
  
  
  
  
  
  
  
  
  
  
  
  
  
  
  
  
  
  
  
  
  
  
  
  
  
  
  
  
  
  
  
  
  
  
  
  
  
  
  
  
  
  
  
  
  
  
  
  
  
  
  
  
  
  
  
  
  
  
  
  
  
  
  
  
  
  
  
  
  
  
  
  
  
  
  
  
  
  
  
  
  
  
  
  
  
  
  
  
  
  
  
  
  
  
  
  
  
  
  
  
  
  
  
  
  
  
  
  
  
  
  
  
  
  
  
  
  
  
  
  
  
  
  
  
  
  
  
  
  
  
  
  
  
  
  
  
  
  
  
  
  
  
  
  
  
  
  
  
  
  
  
  
  
  
  
  
  
  
  
  
  
  
  
  
  
  
  
  
  
  
  
  
  
  
  
  
  
  
  
  
  
  
  
  
  
  
  
  
  
  
  
  
  
  
  
  
  
  
  
  
  
  
  
  
  
  
  
  
  
  
  
  
 </defs>
 <polygon
   style="fill:#1f1a17"
   id="polygon12"
   points="2.4855,3.86435 23.5185,3.86435 23.5185,10.1015 3.31742,10.1015 3.31742,15.5067 2.4855,15.5067 2.4855,9.26954 22.6872,9.26954 22.6872,4.69638 2.4855,4.69638 2.4855,3.86435 "
   class="fil1" /><polygon
   style="fill:#1f1a17"
   id="polygon14"
   points="69.9988,14.6331 69.9988,15.5067 48.966,15.5067 48.966,9.26954 69.1658,9.26954 69.1658,4.69638 48.966,4.69638 48.966,3.86435 69.9988,3.86435 69.9988,10.1015 49.798,10.1015 49.798,14.6747 69.9988,14.6747 69.9988,15.5067 69.9988,14.6331 "
   class="fil1" /><polygon
   style="fill:#1f1a17"
   id="polygon16"
   points="34.2474,3.86435 34.2474,14.6747 23.5185,14.6747 23.5185,15.5067 35.1198,15.5067 35.1198,4.69638 45.8488,4.69638 45.8488,3.86435 34.2474,3.86435 "
   class="fil1" /><polygon
   style="fill:#33438a"
   id="polygon18"
   points="2.4855,3.86435 23.5185,3.86435 23.5185,3.95527 2.4855,3.95527 2.4855,3.86435 "
   class="fil2" /><polygon
   style="fill:#33438a"
   id="polygon20"
   points="2.4855,3.95527 23.5185,3.95527 23.5185,4.04619 2.4855,4.04619 2.4855,3.95527 "
   class="fil2" /><polygon
   style="fill:#33448b"
   id="polygon22"
   points="2.4855,4.04619 23.5185,4.04619 23.5185,4.13723 2.4855,4.13723 2.4855,4.04619 "
   class="fil3" /><polygon
   style="fill:#32458c"
   id="polygon24"
   points="2.4855,4.13723 23.5185,4.13723 23.5185,4.22815 2.4855,4.22815 2.4855,4.13723 "
   class="fil4" /><polygon
   style="fill:#32458c"
   id="polygon26"
   points="2.4855,4.22815 23.5185,4.22815 23.5185,4.31908 2.4855,4.31908 2.4855,4.22815 "
   class="fil4" /><polygon
   style="fill:#31468d"
   id="polygon28"
   points="2.4855,4.31908 23.5185,4.31908 23.5185,4.41012 2.4855,4.41012 2.4855,4.31908 "
   class="fil5" /><polygon
   style="fill:#31488e"
   id="polygon30"
   points="2.4855,4.41012 23.5185,4.41012 23.5185,4.50104 2.4855,4.50104 2.4855,4.41012 "
   class="fil6" /><polygon
   style="fill:#31488e"
   id="polygon32"
   points="2.4855,4.50104 23.5185,4.50104 23.5185,4.59196 2.4855,4.59196 2.4855,4.50104 "
   class="fil6" /><polygon
   style="fill:#30498f"
   id="polygon34"
   points="2.4855,4.59196 23.5185,4.59196 23.5185,4.68288 2.4855,4.68288 2.4855,4.59196 "
   class="fil7" /><polygon
   style="fill:#30498f"
   id="polygon36"
   points="2.4855,4.68288 23.5185,4.68288 23.5185,4.77392 22.6872,4.77392 22.6872,4.69638 2.4855,4.69638 2.4855,4.68288 "
   class="fil7" /><polygon
   style="fill:#2f4a90"
   id="polygon38"
   points="22.6872,4.77392 23.5185,4.77392 23.5185,4.86485 22.6872,4.86485 22.6872,4.77392 "
   class="fil8" /><polygon
   style="fill:#2f4a90"
   id="polygon40"
   points="22.6872,4.86485 23.5185,4.86485 23.5185,4.95577 22.6872,4.95577 22.6872,4.86485 "
   class="fil8" /><polygon
   style="fill:#2e4c91"
   id="polygon42"
   points="22.6872,4.95577 23.5185,4.95577 23.5185,5.04681 22.6872,5.04681 22.6872,4.95577 "
   class="fil9" /><polygon
   style="fill:#2b4c92"
   id="polygon44"
   points="22.6872,5.04681 23.5185,5.04681 23.5185,5.13773 22.6872,5.13773 22.6872,5.04681 "
   class="fil10" /><polygon
   style="fill:#2b4c92"
   id="polygon46"
   points="22.6872,5.13773 23.5185,5.13773 23.5185,5.22865 22.6872,5.22865 22.6872,5.13773 "
   class="fil10" /><polygon
   style="fill:#2a4e93"
   id="polygon48"
   points="22.6872,5.22865 23.5185,5.22865 23.5185,5.31958 22.6872,5.31958 22.6872,5.22865 "
   class="fil11" /><polygon
   style="fill:#294f94"
   id="polygon50"
   points="22.6872,5.31958 23.5185,5.31958 23.5185,5.41062 22.6872,5.41062 22.6872,5.31958 "
   class="fil12" /><polygon
   style="fill:#294f94"
   id="polygon52"
   points="22.6872,5.41062 23.5185,5.41062 23.5185,5.50154 22.6872,5.50154 22.6872,5.41062 "
   class="fil12" /><polygon
   style="fill:#285095"
   id="polygon54"
   points="22.6872,5.50154 23.5185,5.50154 23.5185,5.59246 22.6872,5.59246 22.6872,5.50154 "
   class="fil13" /><polygon
   style="fill:#285095"
   id="polygon56"
   points="22.6872,5.59246 23.5185,5.59246 23.5185,5.6835 22.6872,5.6835 22.6872,5.59246 "
   class="fil13" /><polygon
   style="fill:#275196"
   id="polygon58"
   points="22.6872,5.6835 23.5185,5.6835 23.5185,5.77442 22.6872,5.77442 22.6872,5.6835 "
   class="fil14" /><polygon
   style="fill:#275196"
   id="polygon60"
   points="22.6872,5.77442 23.5185,5.77442 23.5185,5.86535 22.6872,5.86535 22.6872,5.77442 "
   class="fil14" /><polygon
   style="fill:#265297"
   id="polygon62"
   points="22.6872,5.86535 23.5185,5.86535 23.5185,5.95638 22.6872,5.95638 22.6872,5.86535 "
   class="fil15" /><polygon
   style="fill:#265297"
   id="polygon64"
   points="22.6872,5.95638 23.5185,5.95638 23.5185,6.04731 22.6872,6.04731 22.6872,5.95638 "
   class="fil15" /><polygon
   style="fill:#255398"
   id="polygon66"
   points="22.6872,6.04731 23.5185,6.04731 23.5185,6.13823 22.6872,6.13823 22.6872,6.04731 "
   class="fil16" /><polygon
   style="fill:#245599"
   id="polygon68"
   points="22.6872,6.13823 23.5185,6.13823 23.5185,6.22915 22.6872,6.22915 22.6872,6.13823 "
   class="fil17" /><polygon
   style="fill:#245599"
   id="polygon70"
   points="22.6872,6.22915 23.5185,6.22915 23.5185,6.32019 22.6872,6.32019 22.6872,6.22915 "
   class="fil17" /><polygon
   style="fill:#23569a"
   id="polygon72"
   points="22.6872,6.32019 23.5185,6.32019 23.5185,6.41112 22.6872,6.41112 22.6872,6.32019 "
   class="fil18" /><polygon
   style="fill:#22579b"
   id="polygon74"
   points="22.6872,6.41112 23.5185,6.41112 23.5185,6.50204 22.6872,6.50204 22.6872,6.41112 "
   class="fil19" /><polygon
   style="fill:#22579b"
   id="polygon76"
   points="22.6872,6.50204 23.5185,6.50204 23.5185,6.59308 22.6872,6.59308 22.6872,6.50204 "
   class="fil19" /><polygon
   style="fill:#20599c"
   id="polygon78"
   points="22.6872,6.59308 23.5185,6.59308 23.5185,6.684 22.6872,6.684 22.6872,6.59308 "
   class="fil20" /><polygon
   style="fill:#20599c"
   id="polygon80"
   points="22.6872,6.684 23.5185,6.684 23.5185,6.77492 22.6872,6.77492 22.6872,6.684 "
   class="fil20" /><polygon
   style="fill:#1e599d"
   id="polygon82"
   points="22.6872,6.77492 23.5185,6.77492 23.5185,6.86585 22.6872,6.86585 22.6872,6.77492 "
   class="fil21" /><polygon
   style="fill:#1e599d"
   id="polygon84"
   points="22.6872,6.86585 23.5185,6.86585 23.5185,6.95688 22.6872,6.95688 22.6872,6.86585 "
   class="fil21" /><polygon
   style="fill:#1c5b9e"
   id="polygon86"
   points="22.6872,6.95688 23.5185,6.95688 23.5185,7.04781 22.6872,7.04781 22.6872,6.95688 "
   class="fil22" /><polygon
   style="fill:#1c5b9e"
   id="polygon88"
   points="22.6872,7.04781 23.5185,7.04781 23.5185,7.13873 22.6872,7.13873 22.6872,7.04781 "
   class="fil22" /><polygon
   style="fill:#1b5c9f"
   id="polygon90"
   points="22.6872,7.13873 23.5185,7.13873 23.5185,7.22977 22.6872,7.22977 22.6872,7.13873 "
   class="fil23" /><polygon
   style="fill:#185da0"
   id="polygon92"
   points="22.6872,7.22977 23.5185,7.22977 23.5185,7.32069 22.6872,7.32069 22.6872,7.22977 "
   class="fil24" /><polygon
   style="fill:#185da0"
   id="polygon94"
   points="22.6872,7.32069 23.5185,7.32069 23.5185,7.41162 22.6872,7.41162 22.6872,7.32069 "
   class="fil24" /><polygon
   style="fill:#165ea1"
   id="polygon96"
   points="22.6872,7.41162 23.5185,7.41162 23.5185,7.50265 22.6872,7.50265 22.6872,7.41162 "
   class="fil25" /><polygon
   style="fill:#135fa2"
   id="polygon98"
   points="22.6872,7.50265 23.5185,7.50265 23.5185,7.59358 22.6872,7.59358 22.6872,7.50265 "
   class="fil26" /><polygon
   style="fill:#135fa2"
   id="polygon100"
   points="22.6872,7.59358 23.5185,7.59358 23.5185,7.6845 22.6872,7.6845 22.6872,7.59358 "
   class="fil26" /><polygon
   style="fill:#1160a3"
   id="polygon102"
   points="22.6872,7.6845 23.5185,7.6845 23.5185,7.77542 22.6872,7.77542 22.6872,7.6845 "
   class="fil27" /><polygon
   style="fill:#0d62a4"
   id="polygon104"
   points="22.6872,7.77542 23.5185,7.77542 23.5185,7.86646 22.6872,7.86646 22.6872,7.77542 "
   class="fil28" /><polygon
   style="fill:#0d62a4"
   id="polygon106"
   points="22.6872,7.86646 23.5185,7.86646 23.5185,7.95738 22.6872,7.95738 22.6872,7.86646 "
   class="fil28" /><polygon
   style="fill:#0863a5"
   id="polygon108"
   points="22.6872,7.95738 23.5185,7.95738 23.5185,8.04831 22.6872,8.04831 22.6872,7.95738 "
   class="fil29" /><polygon
   style="fill:#0863a5"
   id="polygon110"
   points="22.6872,8.04831 23.5185,8.04831 23.5185,8.13935 22.6872,8.13935 22.6872,8.04831 "
   class="fil29" /><polygon
   style="fill:#0464a6"
   id="polygon112"
   points="22.6872,8.13935 23.5185,8.13935 23.5185,8.23027 22.6872,8.23027 22.6872,8.13935 "
   class="fil30" /><polygon
   style="fill:#0464a6"
   id="polygon114"
   points="22.6872,8.23027 23.5185,8.23027 23.5185,8.32119 22.6872,8.32119 22.6872,8.23027 "
   class="fil30" /><polygon
   style="fill:#0065a7"
   id="polygon116"
   points="22.6872,8.32119 23.5185,8.32119 23.5185,8.41212 22.6872,8.41212 22.6872,8.32119 "
   class="fil31" /><polygon
   style="fill:#0065a8"
   id="polygon118"
   points="22.6872,8.41212 23.5185,8.41212 23.5185,8.50315 22.6872,8.50315 22.6872,8.41212 "
   class="fil32" /><polygon
   style="fill:#0065a8"
   id="polygon120"
   points="22.6872,8.50315 23.5185,8.50315 23.5185,8.59408 22.6872,8.59408 22.6872,8.50315 "
   class="fil32" /><polygon
   style="fill:#0067a9"
   id="polygon122"
   points="22.6872,8.59408 23.5185,8.59408 23.5185,8.685 22.6872,8.685 22.6872,8.59408 "
   class="fil33" /><polygon
   style="fill:#0067a9"
   id="polygon124"
   points="22.6872,8.685 23.5185,8.685 23.5185,8.77604 22.6872,8.77604 22.6872,8.685 "
   class="fil33" /><polygon
   style="fill:#0068aa"
   id="polygon126"
   points="22.6872,8.77604 23.5185,8.77604 23.5185,8.86696 22.6872,8.86696 22.6872,8.77604 "
   class="fil34" /><polygon
   style="fill:#0069ab"
   id="polygon128"
   points="22.6872,8.86696 23.5185,8.86696 23.5185,8.95788 22.6872,8.95788 22.6872,8.86696 "
   class="fil35" /><polygon
   style="fill:#0069ab"
   id="polygon130"
   points="22.6872,8.95788 23.5185,8.95788 23.5185,9.04881 22.6872,9.04881 22.6872,8.95788 "
   class="fil35" /><polygon
   style="fill:#006aac"
   id="polygon132"
   points="22.6872,9.04881 23.5185,9.04881 23.5185,9.13985 22.6872,9.13985 22.6872,9.04881 "
   class="fil36" /><polygon
   style="fill:#006aac"
   id="polygon134"
   points="22.6872,9.13985 23.5185,9.13985 23.5185,9.23077 22.6872,9.23077 22.6872,9.13985 "
   class="fil36" /><polygon
   style="fill:#006bad"
   id="polygon136"
   points="22.6872,9.23077 23.5185,9.23077 23.5185,9.32169 2.4855,9.32169 2.4855,9.26954 22.6872,9.26954 22.6872,9.23077 "
   class="fil37" /><polygon
   style="fill:#006bad"
   id="polygon138"
   points="2.4855,9.32169 23.5185,9.32169 23.5185,9.41273 2.4855,9.41273 2.4855,9.32169 "
   class="fil37" /><polygon
   style="fill:#006caf"
   id="polygon140"
   points="2.4855,9.41273 23.5185,9.41273 23.5185,9.50365 2.4855,9.50365 2.4855,9.41273 "
   class="fil38" /><polygon
   style="fill:#006daf"
   id="polygon142"
   points="2.4855,9.50365 23.5185,9.50365 23.5185,9.59458 2.4855,9.59458 2.4855,9.50365 "
   class="fil39" /><polygon
   style="fill:#006daf"
   id="polygon144"
   points="2.4855,9.59458 23.5185,9.59458 23.5185,9.68562 2.4855,9.68562 2.4855,9.59458 "
   class="fil39" /><polygon
   style="fill:#006fb1"
   id="polygon146"
   points="2.4855,9.68562 23.5185,9.68562 23.5185,9.77654 2.4855,9.77654 2.4855,9.68562 "
   class="fil40" /><polygon
   style="fill:#006fb2"
   id="polygon148"
   points="2.4855,9.77654 23.5185,9.77654 23.5185,9.86746 2.4855,9.86746 2.4855,9.77654 "
   class="fil41" /><polygon
   style="fill:#006fb2"
   id="polygon150"
   points="2.4855,9.86746 23.5185,9.86746 23.5185,9.95838 2.4855,9.95838 2.4855,9.86746 "
   class="fil41" /><polygon
   style="fill:#0071b3"
   id="polygon152"
   points="2.4855,9.95838 23.5185,9.95838 23.5185,10.0494 2.4855,10.0494 2.4855,9.95838 "
   class="fil42" /><polygon
   style="fill:#0071b3"
   id="polygon154"
   points="2.4855,10.0494 23.5185,10.0494 23.5185,10.1015 3.31742,10.1015 3.31742,10.1403 2.4855,10.1403 2.4855,10.0494 "
   class="fil42" /><polygon
   style="fill:#0072b4"
   id="polygon156"
   points="2.4855,10.1403 3.31742,10.1403 3.31742,10.2313 2.4855,10.2313 2.4855,10.1403 "
   class="fil43" /><polygon
   style="fill:#0072b4"
   id="polygon158"
   points="2.4855,10.2313 3.31742,10.2313 3.31742,10.3223 2.4855,10.3223 2.4855,10.2313 "
   class="fil43" /><polygon
   style="fill:#0073b5"
   id="polygon160"
   points="2.4855,10.3223 3.31742,10.3223 3.31742,10.4132 2.4855,10.4132 2.4855,10.3223 "
   class="fil44" /><polygon
   style="fill:#0073b5"
   id="polygon162"
   points="2.4855,10.4132 3.31742,10.4132 3.31742,10.5042 2.4855,10.5042 2.4855,10.4132 "
   class="fil44" /><polygon
   style="fill:#0074b6"
   id="polygon164"
   points="2.4855,10.5042 3.31742,10.5042 3.31742,10.5951 2.4855,10.5951 2.4855,10.5042 "
   class="fil45" /><polygon
   style="fill:#0075b7"
   id="polygon166"
   points="2.4855,10.5951 3.31742,10.5951 3.31742,10.6861 2.4855,10.6861 2.4855,10.5951 "
   class="fil46" /><polygon
   style="fill:#0075b7"
   id="polygon168"
   points="2.4855,10.6861 3.31742,10.6861 3.31742,10.777 2.4855,10.777 2.4855,10.6861 "
   class="fil46" /><polygon
   style="fill:#0075b8"
   id="polygon170"
   points="2.4855,10.777 3.31742,10.777 3.31742,10.868 2.4855,10.868 2.4855,10.777 "
   class="fil47" /><polygon
   style="fill:#0077b9"
   id="polygon172"
   points="2.4855,10.868 3.31742,10.868 3.31742,10.959 2.4855,10.959 2.4855,10.868 "
   class="fil48" /><polygon
   style="fill:#0077b9"
   id="polygon174"
   points="2.4855,10.959 3.31742,10.959 3.31742,11.0499 2.4855,11.0499 2.4855,10.959 "
   class="fil48" /><polygon
   style="fill:#0078bb"
   id="polygon176"
   points="2.4855,11.0499 3.31742,11.0499 3.31742,11.1408 2.4855,11.1408 2.4855,11.0499 "
   class="fil49" /><polygon
   style="fill:#0078bb"
   id="polygon178"
   points="2.4855,11.1408 3.31742,11.1408 3.31742,11.2319 2.4855,11.2319 2.4855,11.1408 "
   class="fil49" /><polygon
   style="fill:#0079bb"
   id="polygon180"
   points="2.4855,11.2319 3.31742,11.2319 3.31742,11.3228 2.4855,11.3228 2.4855,11.2319 "
   class="fil50" /><polygon
   style="fill:#0079bb"
   id="polygon182"
   points="2.4855,11.3228 3.31742,11.3228 3.31742,11.4137 2.4855,11.4137 2.4855,11.3228 "
   class="fil50" /><polygon
   style="fill:#007abd"
   id="polygon184"
   points="2.4855,11.4137 3.31742,11.4137 3.31742,11.5047 2.4855,11.5047 2.4855,11.4137 "
   class="fil51" /><polygon
   style="fill:#007bbe"
   id="polygon186"
   points="2.4855,11.5047 3.31742,11.5047 3.31742,11.5957 2.4855,11.5957 2.4855,11.5047 "
   class="fil52" /><polygon
   style="fill:#007bbe"
   id="polygon188"
   points="2.4855,11.5957 3.31742,11.5957 3.31742,11.6866 2.4855,11.6866 2.4855,11.5957 "
   class="fil52" /><polygon
   style="fill:#007cbf"
   id="polygon190"
   points="2.4855,11.6866 3.31742,11.6866 3.31742,11.7775 2.4855,11.7775 2.4855,11.6866 "
   class="fil53" /><polygon
   style="fill:#007cbf"
   id="polygon192"
   points="2.4855,11.7775 3.31742,11.7775 3.31742,11.8686 2.4855,11.8686 2.4855,11.7775 "
   class="fil53" /><polygon
   style="fill:#007dc0"
   id="polygon194"
   points="2.4855,11.8686 3.31742,11.8686 3.31742,11.9595 2.4855,11.9595 2.4855,11.8686 "
   class="fil54" /><polygon
   style="fill:#007fc2"
   id="polygon196"
   points="2.4855,11.9595 3.31742,11.9595 3.31742,12.0504 2.4855,12.0504 2.4855,11.9595 "
   class="fil55" /><polygon
   style="fill:#007fc2"
   id="polygon198"
   points="2.4855,12.0504 3.31742,12.0504 3.31742,12.1413 2.4855,12.1413 2.4855,12.0504 "
   class="fil55" /><polygon
   style="fill:#0080c3"
   id="polygon200"
   points="2.4855,12.1413 3.31742,12.1413 3.31742,12.2324 2.4855,12.2324 2.4855,12.1413 "
   class="fil56" /><polygon
   style="fill:#0080c3"
   id="polygon202"
   points="2.4855,12.2324 3.31742,12.2324 3.31742,12.3233 2.4855,12.3233 2.4855,12.2324 "
   class="fil56" /><polygon
   style="fill:#0081c4"
   id="polygon204"
   points="2.4855,12.3233 3.31742,12.3233 3.31742,12.4142 2.4855,12.4142 2.4855,12.3233 "
   class="fil57" /><polygon
   style="fill:#0081c4"
   id="polygon206"
   points="2.4855,12.4142 3.31742,12.4142 3.31742,12.5053 2.4855,12.5053 2.4855,12.4142 "
   class="fil57" /><polygon
   style="fill:#0082c6"
   id="polygon208"
   points="2.4855,12.5053 3.31742,12.5053 3.31742,12.5962 2.4855,12.5962 2.4855,12.5053 "
   class="fil58" /><polygon
   style="fill:#0083c7"
   id="polygon210"
   points="2.4855,12.5962 3.31742,12.5962 3.31742,12.6871 2.4855,12.6871 2.4855,12.5962 "
   class="fil59" /><polygon
   style="fill:#0083c7"
   id="polygon212"
   points="2.4855,12.6871 3.31742,12.6871 3.31742,12.7782 2.4855,12.7782 2.4855,12.6871 "
   class="fil59" /><polygon
   style="fill:#0085c8"
   id="polygon214"
   points="2.4855,12.7782 3.31742,12.7782 3.31742,12.8691 2.4855,12.8691 2.4855,12.7782 "
   class="fil60" /><polygon
   style="fill:#0085c9"
   id="polygon216"
   points="2.4855,12.8691 3.31742,12.8691 3.31742,12.96 2.4855,12.96 2.4855,12.8691 "
   class="fil61" /><polygon
   style="fill:#0085c9"
   id="polygon218"
   points="2.4855,12.96 3.31742,12.96 3.31742,13.0509 2.4855,13.0509 2.4855,12.96 "
   class="fil61" /><polygon
   style="fill:#0087cb"
   id="polygon220"
   points="2.4855,13.0509 3.31742,13.0509 3.31742,13.142 2.4855,13.142 2.4855,13.0509 "
   class="fil62" /><polygon
   style="fill:#0087cb"
   id="polygon222"
   points="2.4855,13.142 3.31742,13.142 3.31742,13.2329 2.4855,13.2329 2.4855,13.142 "
   class="fil62" /><polygon
   style="fill:#0088cc"
   id="polygon224"
   points="2.4855,13.2329 3.31742,13.2329 3.31742,13.3238 2.4855,13.3238 2.4855,13.2329 "
   class="fil63" /><polygon
   style="fill:#0088cc"
   id="polygon226"
   points="2.4855,13.3238 3.31742,13.3238 3.31742,13.4148 2.4855,13.4148 2.4855,13.3238 "
   class="fil63" /><polygon
   style="fill:#0089cd"
   id="polygon228"
   points="2.4855,13.4148 3.31742,13.4148 3.31742,13.5058 2.4855,13.5058 2.4855,13.4148 "
   class="fil64" /><polygon
   style="fill:#0089cd"
   id="polygon230"
   points="2.4855,13.5058 3.31742,13.5058 3.31742,13.5967 2.4855,13.5967 2.4855,13.5058 "
   class="fil64" /><polygon
   style="fill:#008ace"
   id="polygon232"
   points="2.4855,13.5967 3.31742,13.5967 3.31742,13.6876 2.4855,13.6876 2.4855,13.5967 "
   class="fil65" /><polygon
   style="fill:#008bd0"
   id="polygon234"
   points="2.4855,13.6876 3.31742,13.6876 3.31742,13.7787 2.4855,13.7787 2.4855,13.6876 "
   class="fil66" /><polygon
   style="fill:#008bd0"
   id="polygon236"
   points="2.4855,13.7787 3.31742,13.7787 3.31742,13.8696 2.4855,13.8696 2.4855,13.7787 "
   class="fil66" /><polygon
   style="fill:#008cd1"
   id="polygon238"
   points="2.4855,13.8696 3.31742,13.8696 3.31742,13.9605 2.4855,13.9605 2.4855,13.8696 "
   class="fil67" /><polygon
   style="fill:#008ed3"
   id="polygon240"
   points="2.4855,13.9605 3.31742,13.9605 3.31742,14.0515 2.4855,14.0515 2.4855,13.9605 "
   class="fil68" /><polygon
   style="fill:#008ed3"
   id="polygon242"
   points="2.4855,14.0515 3.31742,14.0515 3.31742,14.1425 2.4855,14.1425 2.4855,14.0515 "
   class="fil68" /><polygon
   style="fill:#008ed4"
   id="polygon244"
   points="2.4855,14.1425 3.31742,14.1425 3.31742,14.2334 2.4855,14.2334 2.4855,14.1425 "
   class="fil69" /><polygon
   style="fill:#008ed4"
   id="polygon246"
   points="2.4855,14.2334 3.31742,14.2334 3.31742,14.3243 2.4855,14.3243 2.4855,14.2334 "
   class="fil69" /><polygon
   style="fill:#008fd5"
   id="polygon248"
   points="2.4855,14.3243 3.31742,14.3243 3.31742,14.4153 2.4855,14.4153 2.4855,14.3243 "
   class="fil70" /><polygon
   style="fill:#008fd5"
   id="polygon250"
   points="2.4855,14.4153 3.31742,14.4153 3.31742,14.5063 2.4855,14.5063 2.4855,14.4153 "
   class="fil70" /><polygon
   style="fill:#0091d7"
   id="polygon252"
   points="2.4855,14.5063 3.31742,14.5063 3.31742,14.5972 2.4855,14.5972 2.4855,14.5063 "
   class="fil71" /><polygon
   style="fill:#0092d8"
   id="polygon254"
   points="2.4855,14.5972 3.31742,14.5972 3.31742,14.6882 2.4855,14.6882 2.4855,14.5972 "
   class="fil72" /><polygon
   style="fill:#0092d8"
   id="polygon256"
   points="2.4855,14.6882 3.31742,14.6882 3.31742,14.7792 2.4855,14.7792 2.4855,14.6882 "
   class="fil72" /><polygon
   style="fill:#0093da"
   id="polygon258"
   points="2.4855,14.7792 3.31742,14.7792 3.31742,14.8701 2.4855,14.8701 2.4855,14.7792 "
   class="fil73" /><polygon
   style="fill:#0093da"
   id="polygon260"
   points="2.4855,14.8701 3.31742,14.8701 3.31742,14.9611 2.4855,14.9611 2.4855,14.8701 "
   class="fil73" /><polygon
   style="fill:#0094db"
   id="polygon262"
   points="2.4855,14.9611 3.31742,14.9611 3.31742,15.052 2.4855,15.052 2.4855,14.9611 "
   class="fil74" /><polygon
   style="fill:#0095dd"
   id="polygon264"
   points="2.4855,15.052 3.31742,15.052 3.31742,15.143 2.4855,15.143 2.4855,15.052 "
   class="fil75" /><polygon
   style="fill:#0095dd"
   id="polygon266"
   points="2.4855,15.143 3.31742,15.143 3.31742,15.2339 2.4855,15.2339 2.4855,15.143 "
   class="fil75" /><polygon
   style="fill:#0096de"
   id="polygon268"
   points="2.4855,15.2339 3.31742,15.2339 3.31742,15.3249 2.4855,15.3249 2.4855,15.2339 "
   class="fil76" /><polygon
   style="fill:#0096de"
   id="polygon270"
   points="2.4855,15.3249 3.31742,15.3249 3.31742,15.4158 2.4855,15.4158 2.4855,15.3249 "
   class="fil76" /><polygon
   style="fill:#0098df"
   id="polygon272"
   points="2.4855,15.4158 3.31742,15.4158 3.31742,15.5067 2.4855,15.5067 2.4855,15.4158 "
   class="fil77" /><polygon
   style="fill:#33438a"
   id="polygon274"
   points="48.966,3.86435 69.9988,3.86435 48.966,3.86435 "
   class="fil2" /><polygon
   style="fill:#33438a"
   id="polygon276"
   points="48.966,3.86435 69.9988,3.86435 69.9988,3.95527 48.966,3.95527 48.966,3.86435 "
   class="fil2" /><polygon
   style="fill:#33438a"
   id="polygon278"
   points="48.966,3.95527 69.9988,3.95527 69.9988,4.04619 48.966,4.04619 48.966,3.95527 "
   class="fil2" /><polygon
   style="fill:#33448b"
   id="polygon280"
   points="48.966,4.04619 69.9988,4.04619 69.9988,4.13723 48.966,4.13723 48.966,4.04619 "
   class="fil3" /><polygon
   style="fill:#32458c"
   id="polygon282"
   points="48.966,4.13723 69.9988,4.13723 69.9988,4.22815 48.966,4.22815 48.966,4.13723 "
   class="fil4" /><polygon
   style="fill:#32458c"
   id="polygon284"
   points="48.966,4.22815 69.9988,4.22815 69.9988,4.31908 48.966,4.31908 48.966,4.22815 "
   class="fil4" /><polygon
   style="fill:#31468d"
   id="polygon286"
   points="48.966,4.31908 69.9988,4.31908 69.9988,4.41012 48.966,4.41012 48.966,4.31908 "
   class="fil5" /><polygon
   style="fill:#31488e"
   id="polygon288"
   points="48.966,4.41012 69.9988,4.41012 69.9988,4.50104 48.966,4.50104 48.966,4.41012 "
   class="fil6" /><polygon
   style="fill:#31488e"
   id="polygon290"
   points="48.966,4.50104 69.9988,4.50104 69.9988,4.59196 48.966,4.59196 48.966,4.50104 "
   class="fil6" /><polygon
   style="fill:#30498f"
   id="polygon292"
   points="48.966,4.59196 69.9988,4.59196 69.9988,4.68288 48.966,4.68288 48.966,4.59196 "
   class="fil7" /><polygon
   style="fill:#30498f"
   id="polygon294"
   points="48.966,4.68288 69.9988,4.68288 69.9988,4.77392 69.1658,4.77392 69.1658,4.69638 48.966,4.69638 48.966,4.68288 "
   class="fil7" /><polygon
   style="fill:#2f4a90"
   id="polygon296"
   points="69.1658,4.77392 69.9988,4.77392 69.9988,4.86485 69.1658,4.86485 69.1658,4.77392 "
   class="fil8" /><polygon
   style="fill:#2f4a90"
   id="polygon298"
   points="69.1658,4.86485 69.9988,4.86485 69.9988,4.95577 69.1658,4.95577 69.1658,4.86485 "
   class="fil8" /><polygon
   style="fill:#2e4c91"
   id="polygon300"
   points="69.1658,4.95577 69.9988,4.95577 69.9988,5.04681 69.1658,5.04681 69.1658,4.95577 "
   class="fil9" /><polygon
   style="fill:#2b4c92"
   id="polygon302"
   points="69.1658,5.04681 69.9988,5.04681 69.9988,5.13773 69.1658,5.13773 69.1658,5.04681 "
   class="fil10" /><polygon
   style="fill:#2b4c92"
   id="polygon304"
   points="69.1658,5.13773 69.9988,5.13773 69.9988,5.22865 69.1658,5.22865 69.1658,5.13773 "
   class="fil10" /><polygon
   style="fill:#2a4e93"
   id="polygon306"
   points="69.1658,5.22865 69.9988,5.22865 69.9988,5.31958 69.1658,5.31958 69.1658,5.22865 "
   class="fil11" /><polygon
   style="fill:#294f94"
   id="polygon308"
   points="69.1658,5.31958 69.9988,5.31958 69.9988,5.41062 69.1658,5.41062 69.1658,5.31958 "
   class="fil12" /><polygon
   style="fill:#294f94"
   id="polygon310"
   points="69.1658,5.41062 69.9988,5.41062 69.9988,5.50154 69.1658,5.50154 69.1658,5.41062 "
   class="fil12" /><polygon
   style="fill:#285095"
   id="polygon312"
   points="69.1658,5.50154 69.9988,5.50154 69.9988,5.59246 69.1658,5.59246 69.1658,5.50154 "
   class="fil13" /><polygon
   style="fill:#285095"
   id="polygon314"
   points="69.1658,5.59246 69.9988,5.59246 69.9988,5.6835 69.1658,5.6835 69.1658,5.59246 "
   class="fil13" /><polygon
   style="fill:#275196"
   id="polygon316"
   points="69.1658,5.6835 69.9988,5.6835 69.9988,5.77442 69.1658,5.77442 69.1658,5.6835 "
   class="fil14" /><polygon
   style="fill:#275196"
   id="polygon318"
   points="69.1658,5.77442 69.9988,5.77442 69.9988,5.86535 69.1658,5.86535 69.1658,5.77442 "
   class="fil14" /><polygon
   style="fill:#265297"
   id="polygon320"
   points="69.1658,5.86535 69.9988,5.86535 69.9988,5.95638 69.1658,5.95638 69.1658,5.86535 "
   class="fil15" /><polygon
   style="fill:#265297"
   id="polygon322"
   points="69.1658,5.95638 69.9988,5.95638 69.9988,6.04731 69.1658,6.04731 69.1658,5.95638 "
   class="fil15" /><polygon
   style="fill:#255398"
   id="polygon324"
   points="69.1658,6.04731 69.9988,6.04731 69.9988,6.13823 69.1658,6.13823 69.1658,6.04731 "
   class="fil16" /><polygon
   style="fill:#245599"
   id="polygon326"
   points="69.1658,6.13823 69.9988,6.13823 69.9988,6.22915 69.1658,6.22915 69.1658,6.13823 "
   class="fil17" /><polygon
   style="fill:#245599"
   id="polygon328"
   points="69.1658,6.22915 69.9988,6.22915 69.9988,6.32019 69.1658,6.32019 69.1658,6.22915 "
   class="fil17" /><polygon
   style="fill:#23569a"
   id="polygon330"
   points="69.1658,6.32019 69.9988,6.32019 69.9988,6.41112 69.1658,6.41112 69.1658,6.32019 "
   class="fil18" /><polygon
   style="fill:#22579b"
   id="polygon332"
   points="69.1658,6.41112 69.9988,6.41112 69.9988,6.50204 69.1658,6.50204 69.1658,6.41112 "
   class="fil19" /><polygon
   style="fill:#22579b"
   id="polygon334"
   points="69.1658,6.50204 69.9988,6.50204 69.9988,6.59308 69.1658,6.59308 69.1658,6.50204 "
   class="fil19" /><polygon
   style="fill:#20599c"
   id="polygon336"
   points="69.1658,6.59308 69.9988,6.59308 69.9988,6.684 69.1658,6.684 69.1658,6.59308 "
   class="fil20" /><polygon
   style="fill:#20599c"
   id="polygon338"
   points="69.1658,6.684 69.9988,6.684 69.9988,6.77492 69.1658,6.77492 69.1658,6.684 "
   class="fil20" /><polygon
   style="fill:#1e599d"
   id="polygon340"
   points="69.1658,6.77492 69.9988,6.77492 69.9988,6.86585 69.1658,6.86585 69.1658,6.77492 "
   class="fil21" /><polygon
   style="fill:#1e599d"
   id="polygon342"
   points="69.1658,6.86585 69.9988,6.86585 69.9988,6.95688 69.1658,6.95688 69.1658,6.86585 "
   class="fil21" /><polygon
   style="fill:#1c5b9e"
   id="polygon344"
   points="69.1658,6.95688 69.9988,6.95688 69.9988,7.04781 69.1658,7.04781 69.1658,6.95688 "
   class="fil22" /><polygon
   style="fill:#1c5b9e"
   id="polygon346"
   points="69.1658,7.04781 69.9988,7.04781 69.9988,7.13873 69.1658,7.13873 69.1658,7.04781 "
   class="fil22" /><polygon
   style="fill:#1b5c9f"
   id="polygon348"
   points="69.1658,7.13873 69.9988,7.13873 69.9988,7.22977 69.1658,7.22977 69.1658,7.13873 "
   class="fil23" /><polygon
   style="fill:#185da0"
   id="polygon350"
   points="69.1658,7.22977 69.9988,7.22977 69.9988,7.32069 69.1658,7.32069 69.1658,7.22977 "
   class="fil24" /><polygon
   style="fill:#185da0"
   id="polygon352"
   points="69.1658,7.32069 69.9988,7.32069 69.9988,7.41162 69.1658,7.41162 69.1658,7.32069 "
   class="fil24" /><polygon
   style="fill:#165ea1"
   id="polygon354"
   points="69.1658,7.41162 69.9988,7.41162 69.9988,7.50265 69.1658,7.50265 69.1658,7.41162 "
   class="fil25" /><polygon
   style="fill:#135fa2"
   id="polygon356"
   points="69.1658,7.50265 69.9988,7.50265 69.9988,7.59358 69.1658,7.59358 69.1658,7.50265 "
   class="fil26" /><polygon
   style="fill:#135fa2"
   id="polygon358"
   points="69.1658,7.59358 69.9988,7.59358 69.9988,7.6845 69.1658,7.6845 69.1658,7.59358 "
   class="fil26" /><polygon
   style="fill:#1160a3"
   id="polygon360"
   points="69.1658,7.6845 69.9988,7.6845 69.9988,7.77542 69.1658,7.77542 69.1658,7.6845 "
   class="fil27" /><polygon
   style="fill:#0d62a4"
   id="polygon362"
   points="69.1658,7.77542 69.9988,7.77542 69.9988,7.86646 69.1658,7.86646 69.1658,7.77542 "
   class="fil28" /><polygon
   style="fill:#0d62a4"
   id="polygon364"
   points="69.1658,7.86646 69.9988,7.86646 69.9988,7.95738 69.1658,7.95738 69.1658,7.86646 "
   class="fil28" /><polygon
   style="fill:#0863a5"
   id="polygon366"
   points="69.1658,7.95738 69.9988,7.95738 69.9988,8.04831 69.1658,8.04831 69.1658,7.95738 "
   class="fil29" /><polygon
   style="fill:#0863a5"
   id="polygon368"
   points="69.1658,8.04831 69.9988,8.04831 69.9988,8.13935 69.1658,8.13935 69.1658,8.04831 "
   class="fil29" /><polygon
   style="fill:#0464a6"
   id="polygon370"
   points="69.1658,8.13935 69.9988,8.13935 69.9988,8.23027 69.1658,8.23027 69.1658,8.13935 "
   class="fil30" /><polygon
   style="fill:#0464a6"
   id="polygon372"
   points="69.1658,8.23027 69.9988,8.23027 69.9988,8.32119 69.1658,8.32119 69.1658,8.23027 "
   class="fil30" /><polygon
   style="fill:#0065a7"
   id="polygon374"
   points="69.1658,8.32119 69.9988,8.32119 69.9988,8.41212 69.1658,8.41212 69.1658,8.32119 "
   class="fil31" /><polygon
   style="fill:#0065a8"
   id="polygon376"
   points="69.1658,8.41212 69.9988,8.41212 69.9988,8.50315 69.1658,8.50315 69.1658,8.41212 "
   class="fil32" /><polygon
   style="fill:#0065a8"
   id="polygon378"
   points="69.1658,8.50315 69.9988,8.50315 69.9988,8.59408 69.1658,8.59408 69.1658,8.50315 "
   class="fil32" /><polygon
   style="fill:#0067a9"
   id="polygon380"
   points="69.1658,8.59408 69.9988,8.59408 69.9988,8.685 69.1658,8.685 69.1658,8.59408 "
   class="fil33" /><polygon
   style="fill:#0067a9"
   id="polygon382"
   points="69.1658,8.685 69.9988,8.685 69.9988,8.77604 69.1658,8.77604 69.1658,8.685 "
   class="fil33" /><polygon
   style="fill:#0068aa"
   id="polygon384"
   points="69.1658,8.77604 69.9988,8.77604 69.9988,8.86696 69.1658,8.86696 69.1658,8.77604 "
   class="fil34" /><polygon
   style="fill:#0069ab"
   id="polygon386"
   points="69.1658,8.86696 69.9988,8.86696 69.9988,8.95788 69.1658,8.95788 69.1658,8.86696 "
   class="fil35" /><polygon
   style="fill:#0069ab"
   id="polygon388"
   points="69.1658,8.95788 69.9988,8.95788 69.9988,9.04881 69.1658,9.04881 69.1658,8.95788 "
   class="fil35" /><polygon
   style="fill:#006aac"
   id="polygon390"
   points="69.1658,9.04881 69.9988,9.04881 69.9988,9.13985 69.1658,9.13985 69.1658,9.04881 "
   class="fil36" /><polygon
   style="fill:#006aac"
   id="polygon392"
   points="69.1658,9.13985 69.9988,9.13985 69.9988,9.23077 69.1658,9.23077 69.1658,9.13985 "
   class="fil36" /><polygon
   style="fill:#006bad"
   id="polygon394"
   points="69.1658,9.23077 69.9988,9.23077 69.9988,9.32169 48.966,9.32169 48.966,9.26954 69.1658,9.26954 69.1658,9.23077 "
   class="fil37" /><polygon
   style="fill:#006bad"
   id="polygon396"
   points="48.966,9.32169 69.9988,9.32169 69.9988,9.41273 48.966,9.41273 48.966,9.32169 "
   class="fil37" /><polygon
   style="fill:#006caf"
   id="polygon398"
   points="48.966,9.41273 69.9988,9.41273 69.9988,9.50365 48.966,9.50365 48.966,9.41273 "
   class="fil38" /><polygon
   style="fill:#006daf"
   id="polygon400"
   points="48.966,9.50365 69.9988,9.50365 69.9988,9.59458 48.966,9.59458 48.966,9.50365 "
   class="fil39" /><polygon
   style="fill:#006daf"
   id="polygon402"
   points="48.966,9.59458 69.9988,9.59458 69.9988,9.68562 48.966,9.68562 48.966,9.59458 "
   class="fil39" /><polygon
   style="fill:#006fb1"
   id="polygon404"
   points="48.966,9.68562 69.9988,9.68562 69.9988,9.77654 48.966,9.77654 48.966,9.68562 "
   class="fil40" /><polygon
   style="fill:#006fb2"
   id="polygon406"
   points="48.966,9.77654 69.9988,9.77654 69.9988,9.86746 48.966,9.86746 48.966,9.77654 "
   class="fil41" /><polygon
   style="fill:#006fb2"
   id="polygon408"
   points="48.966,9.86746 69.9988,9.86746 69.9988,9.95838 48.966,9.95838 48.966,9.86746 "
   class="fil41" /><polygon
   style="fill:#0071b3"
   id="polygon410"
   points="48.966,9.95838 69.9988,9.95838 69.9988,10.0494 48.966,10.0494 48.966,9.95838 "
   class="fil42" /><polygon
   style="fill:#0071b3"
   id="polygon412"
   points="48.966,10.0494 69.9988,10.0494 69.9988,10.1015 49.798,10.1015 49.798,10.1403 48.966,10.1403 48.966,10.0494 "
   class="fil42" /><polygon
   style="fill:#0072b4"
   id="polygon414"
   points="48.966,10.1403 49.798,10.1403 49.798,10.2313 48.966,10.2313 48.966,10.1403 "
   class="fil43" /><polygon
   style="fill:#0072b4"
   id="polygon416"
   points="48.966,10.2313 49.798,10.2313 49.798,10.3223 48.966,10.3223 48.966,10.2313 "
   class="fil43" /><polygon
   style="fill:#0073b5"
   id="polygon418"
   points="48.966,10.3223 49.798,10.3223 49.798,10.4132 48.966,10.4132 48.966,10.3223 "
   class="fil44" /><polygon
   style="fill:#0073b5"
   id="polygon420"
   points="48.966,10.4132 49.798,10.4132 49.798,10.5042 48.966,10.5042 48.966,10.4132 "
   class="fil44" /><polygon
   style="fill:#0074b6"
   id="polygon422"
   points="48.966,10.5042 49.798,10.5042 49.798,10.5951 48.966,10.5951 48.966,10.5042 "
   class="fil45" /><polygon
   style="fill:#0075b7"
   id="polygon424"
   points="48.966,10.5951 49.798,10.5951 49.798,10.6861 48.966,10.6861 48.966,10.5951 "
   class="fil46" /><polygon
   style="fill:#0075b7"
   id="polygon426"
   points="48.966,10.6861 49.798,10.6861 49.798,10.777 48.966,10.777 48.966,10.6861 "
   class="fil46" /><polygon
   style="fill:#0075b8"
   id="polygon428"
   points="48.966,10.777 49.798,10.777 49.798,10.868 48.966,10.868 48.966,10.777 "
   class="fil47" /><polygon
   style="fill:#0077b9"
   id="polygon430"
   points="48.966,10.868 49.798,10.868 49.798,10.959 48.966,10.959 48.966,10.868 "
   class="fil48" /><polygon
   style="fill:#0077b9"
   id="polygon432"
   points="48.966,10.959 49.798,10.959 49.798,11.0499 48.966,11.0499 48.966,10.959 "
   class="fil48" /><polygon
   style="fill:#0078bb"
   id="polygon434"
   points="48.966,11.0499 49.798,11.0499 49.798,11.1408 48.966,11.1408 48.966,11.0499 "
   class="fil49" /><polygon
   style="fill:#0078bb"
   id="polygon436"
   points="48.966,11.1408 49.798,11.1408 49.798,11.2319 48.966,11.2319 48.966,11.1408 "
   class="fil49" /><polygon
   style="fill:#0079bb"
   id="polygon438"
   points="48.966,11.2319 49.798,11.2319 49.798,11.3228 48.966,11.3228 48.966,11.2319 "
   class="fil50" /><polygon
   style="fill:#0079bb"
   id="polygon440"
   points="48.966,11.3228 49.798,11.3228 49.798,11.4137 48.966,11.4137 48.966,11.3228 "
   class="fil50" /><polygon
   style="fill:#007abd"
   id="polygon442"
   points="48.966,11.4137 49.798,11.4137 49.798,11.5047 48.966,11.5047 48.966,11.4137 "
   class="fil51" /><polygon
   style="fill:#007bbe"
   id="polygon444"
   points="48.966,11.5047 49.798,11.5047 49.798,11.5957 48.966,11.5957 48.966,11.5047 "
   class="fil52" /><polygon
   style="fill:#007bbe"
   id="polygon446"
   points="48.966,11.5957 49.798,11.5957 49.798,11.6866 48.966,11.6866 48.966,11.5957 "
   class="fil52" /><polygon
   style="fill:#007cbf"
   id="polygon448"
   points="48.966,11.6866 49.798,11.6866 49.798,11.7775 48.966,11.7775 48.966,11.6866 "
   class="fil53" /><polygon
   style="fill:#007cbf"
   id="polygon450"
   points="48.966,11.7775 49.798,11.7775 49.798,11.8686 48.966,11.8686 48.966,11.7775 "
   class="fil53" /><polygon
   style="fill:#007dc0"
   id="polygon452"
   points="48.966,11.8686 49.798,11.8686 49.798,11.9595 48.966,11.9595 48.966,11.8686 "
   class="fil54" /><polygon
   style="fill:#007fc2"
   id="polygon454"
   points="48.966,11.9595 49.798,11.9595 49.798,12.0504 48.966,12.0504 48.966,11.9595 "
   class="fil55" /><polygon
   style="fill:#007fc2"
   id="polygon456"
   points="48.966,12.0504 49.798,12.0504 49.798,12.1413 48.966,12.1413 48.966,12.0504 "
   class="fil55" /><polygon
   style="fill:#0080c3"
   id="polygon458"
   points="48.966,12.1413 49.798,12.1413 49.798,12.2324 48.966,12.2324 48.966,12.1413 "
   class="fil56" /><polygon
   style="fill:#0080c3"
   id="polygon460"
   points="48.966,12.2324 49.798,12.2324 49.798,12.3233 48.966,12.3233 48.966,12.2324 "
   class="fil56" /><polygon
   style="fill:#0081c4"
   id="polygon462"
   points="48.966,12.3233 49.798,12.3233 49.798,12.4142 48.966,12.4142 48.966,12.3233 "
   class="fil57" /><polygon
   style="fill:#0081c4"
   id="polygon464"
   points="48.966,12.4142 49.798,12.4142 49.798,12.5053 48.966,12.5053 48.966,12.4142 "
   class="fil57" /><polygon
   style="fill:#0082c6"
   id="polygon466"
   points="48.966,12.5053 49.798,12.5053 49.798,12.5962 48.966,12.5962 48.966,12.5053 "
   class="fil58" /><polygon
   style="fill:#0083c7"
   id="polygon468"
   points="48.966,12.5962 49.798,12.5962 49.798,12.6871 48.966,12.6871 48.966,12.5962 "
   class="fil59" /><polygon
   style="fill:#0083c7"
   id="polygon470"
   points="48.966,12.6871 49.798,12.6871 49.798,12.7782 48.966,12.7782 48.966,12.6871 "
   class="fil59" /><polygon
   style="fill:#0085c8"
   id="polygon472"
   points="48.966,12.7782 49.798,12.7782 49.798,12.8691 48.966,12.8691 48.966,12.7782 "
   class="fil60" /><polygon
   style="fill:#0085c9"
   id="polygon474"
   points="48.966,12.8691 49.798,12.8691 49.798,12.96 48.966,12.96 48.966,12.8691 "
   class="fil61" /><polygon
   style="fill:#0085c9"
   id="polygon476"
   points="48.966,12.96 49.798,12.96 49.798,13.0509 48.966,13.0509 48.966,12.96 "
   class="fil61" /><polygon
   style="fill:#0087cb"
   id="polygon478"
   points="48.966,13.0509 49.798,13.0509 49.798,13.142 48.966,13.142 48.966,13.0509 "
   class="fil62" /><polygon
   style="fill:#0087cb"
   id="polygon480"
   points="48.966,13.142 49.798,13.142 49.798,13.2329 48.966,13.2329 48.966,13.142 "
   class="fil62" /><polygon
   style="fill:#0088cc"
   id="polygon482"
   points="48.966,13.2329 49.798,13.2329 49.798,13.3238 48.966,13.3238 48.966,13.2329 "
   class="fil63" /><polygon
   style="fill:#0088cc"
   id="polygon484"
   points="48.966,13.3238 49.798,13.3238 49.798,13.4148 48.966,13.4148 48.966,13.3238 "
   class="fil63" /><polygon
   style="fill:#0089cd"
   id="polygon486"
   points="48.966,13.4148 49.798,13.4148 49.798,13.5058 48.966,13.5058 48.966,13.4148 "
   class="fil64" /><polygon
   style="fill:#0089cd"
   id="polygon488"
   points="48.966,13.5058 49.798,13.5058 49.798,13.5967 48.966,13.5967 48.966,13.5058 "
   class="fil64" /><polygon
   style="fill:#008ace"
   id="polygon490"
   points="48.966,13.5967 49.798,13.5967 49.798,13.6876 48.966,13.6876 48.966,13.5967 "
   class="fil65" /><polygon
   style="fill:#008bd0"
   id="polygon492"
   points="48.966,13.6876 49.798,13.6876 49.798,13.7787 48.966,13.7787 48.966,13.6876 "
   class="fil66" /><polygon
   style="fill:#008bd0"
   id="polygon494"
   points="48.966,13.7787 49.798,13.7787 49.798,13.8696 48.966,13.8696 48.966,13.7787 "
   class="fil66" /><polygon
   style="fill:#008cd1"
   id="polygon496"
   points="48.966,13.8696 49.798,13.8696 49.798,13.9605 48.966,13.9605 48.966,13.8696 "
   class="fil67" /><polygon
   style="fill:#008ed3"
   id="polygon498"
   points="48.966,13.9605 49.798,13.9605 49.798,14.0515 48.966,14.0515 48.966,13.9605 "
   class="fil68" /><polygon
   style="fill:#008ed3"
   id="polygon500"
   points="48.966,14.0515 49.798,14.0515 49.798,14.1425 48.966,14.1425 48.966,14.0515 "
   class="fil68" /><polygon
   style="fill:#008ed4"
   id="polygon502"
   points="48.966,14.1425 49.798,14.1425 49.798,14.2334 48.966,14.2334 48.966,14.1425 "
   class="fil69" /><polygon
   style="fill:#008ed4"
   id="polygon504"
   points="48.966,14.2334 49.798,14.2334 49.798,14.3243 48.966,14.3243 48.966,14.2334 "
   class="fil69" /><polygon
   style="fill:#008fd5"
   id="polygon506"
   points="48.966,14.3243 49.798,14.3243 49.798,14.4153 48.966,14.4153 48.966,14.3243 "
   class="fil70" /><polygon
   style="fill:#008fd5"
   id="polygon508"
   points="48.966,14.4153 49.798,14.4153 49.798,14.5063 48.966,14.5063 48.966,14.4153 "
   class="fil70" /><polygon
   style="fill:#0091d7"
   id="polygon510"
   points="48.966,14.5063 49.798,14.5063 49.798,14.5972 48.966,14.5972 48.966,14.5063 "
   class="fil71" /><path
   style="fill:#0092d8"
   id="path512"
   d="M 48.966,14.5972 L 49.798038,14.5972 L 49.798038,14.674739 L 69.998738,14.674739 L 69.998738,14.688239 L 48.965938,14.688239 L 48.965938,14.5972 L 48.966,14.5972 z M 69.9988,14.633085 L 69.9988,14.674738"
   class="fil72" /><polygon
   style="fill:#0092d8"
   id="polygon514"
   points="48.966,14.6882 69.9988,14.6882 69.9988,14.7792 48.966,14.7792 48.966,14.6882 "
   class="fil72" /><polygon
   style="fill:#0093da"
   id="polygon516"
   points="48.966,14.7792 69.9988,14.7792 69.9988,14.8701 48.966,14.8701 48.966,14.7792 "
   class="fil73" /><polygon
   style="fill:#0093da"
   id="polygon518"
   points="48.966,14.8701 69.9988,14.8701 69.9988,14.9611 48.966,14.9611 48.966,14.8701 "
   class="fil73" /><polygon
   style="fill:#0094db"
   id="polygon520"
   points="48.966,14.9611 69.9988,14.9611 69.9988,15.052 48.966,15.052 48.966,14.9611 "
   class="fil74" /><polygon
   style="fill:#0095dd"
   id="polygon522"
   points="48.966,15.052 69.9988,15.052 69.9988,15.143 48.966,15.143 48.966,15.052 "
   class="fil75" /><polygon
   style="fill:#0095dd"
   id="polygon524"
   points="48.966,15.143 69.9988,15.143 69.9988,15.2339 48.966,15.2339 48.966,15.143 "
   class="fil75" /><polygon
   style="fill:#0096de"
   id="polygon526"
   points="48.966,15.2339 69.9988,15.2339 69.9988,15.3249 48.966,15.3249 48.966,15.2339 "
   class="fil76" /><polygon
   style="fill:#0096de"
   id="polygon528"
   points="48.966,15.3249 69.9988,15.3249 69.9988,15.4158 48.966,15.4158 48.966,15.3249 "
   class="fil76" /><polygon
   style="fill:#0098df"
   id="polygon530"
   points="48.966,15.4158 69.9988,15.4158 69.9988,15.5067 48.966,15.5067 48.966,15.4158 "
   class="fil77" /><polygon
   style="fill:#33438a"
   id="polygon532"
   points="34.2474,3.86435 45.8488,3.86435 45.8488,3.95527 34.2474,3.95527 34.2474,3.86435 "
   class="fil2" /><polygon
   style="fill:#33438a"
   id="polygon534"
   points="34.2474,3.95527 45.8488,3.95527 45.8488,4.04619 34.2474,4.04619 34.2474,3.95527 "
   class="fil2" /><polygon
   style="fill:#33448b"
   id="polygon536"
   points="34.2474,4.04619 45.8488,4.04619 45.8488,4.13723 34.2474,4.13723 34.2474,4.04619 "
   class="fil3" /><polygon
   style="fill:#32458c"
   id="polygon538"
   points="34.2474,4.13723 45.8488,4.13723 45.8488,4.22815 34.2474,4.22815 34.2474,4.13723 "
   class="fil4" /><polygon
   style="fill:#32458c"
   id="polygon540"
   points="34.2474,4.22815 45.8488,4.22815 45.8488,4.31908 34.2474,4.31908 34.2474,4.22815 "
   class="fil4" /><polygon
   style="fill:#31468d"
   id="polygon542"
   points="34.2474,4.31908 45.8488,4.31908 45.8488,4.41012 34.2474,4.41012 34.2474,4.31908 "
   class="fil5" /><polygon
   style="fill:#31488e"
   id="polygon544"
   points="34.2474,4.41012 45.8488,4.41012 45.8488,4.50104 34.2474,4.50104 34.2474,4.41012 "
   class="fil6" /><polygon
   style="fill:#31488e"
   id="polygon546"
   points="34.2474,4.50104 45.8488,4.50104 45.8488,4.59196 34.2474,4.59196 34.2474,4.50104 "
   class="fil6" /><polygon
   style="fill:#30498f"
   id="polygon548"
   points="34.2474,4.59196 45.8488,4.59196 45.8488,4.68288 34.2474,4.68288 34.2474,4.59196 "
   class="fil7" /><polygon
   style="fill:#30498f"
   id="polygon550"
   points="34.2474,4.68288 45.8488,4.68288 45.8488,4.69638 35.1198,4.69638 35.1198,4.77392 34.2474,4.77392 34.2474,4.68288 "
   class="fil7" /><polygon
   style="fill:#2f4a90"
   id="polygon552"
   points="34.2474,4.77392 35.1198,4.77392 35.1198,4.86485 34.2474,4.86485 34.2474,4.77392 "
   class="fil8" /><polygon
   style="fill:#2f4a90"
   id="polygon554"
   points="34.2474,4.86485 35.1198,4.86485 35.1198,4.95577 34.2474,4.95577 34.2474,4.86485 "
   class="fil8" /><polygon
   style="fill:#2e4c91"
   id="polygon556"
   points="34.2474,4.95577 35.1198,4.95577 35.1198,5.04681 34.2474,5.04681 34.2474,4.95577 "
   class="fil9" /><polygon
   style="fill:#2b4c92"
   id="polygon558"
   points="34.2474,5.04681 35.1198,5.04681 35.1198,5.13773 34.2474,5.13773 34.2474,5.04681 "
   class="fil10" /><polygon
   style="fill:#2b4c92"
   id="polygon560"
   points="34.2474,5.13773 35.1198,5.13773 35.1198,5.22865 34.2474,5.22865 34.2474,5.13773 "
   class="fil10" /><polygon
   style="fill:#2a4e93"
   id="polygon562"
   points="34.2474,5.22865 35.1198,5.22865 35.1198,5.31958 34.2474,5.31958 34.2474,5.22865 "
   class="fil11" /><polygon
   style="fill:#294f94"
   id="polygon564"
   points="34.2474,5.31958 35.1198,5.31958 35.1198,5.41062 34.2474,5.41062 34.2474,5.31958 "
   class="fil12" /><polygon
   style="fill:#294f94"
   id="polygon566"
   points="34.2474,5.41062 35.1198,5.41062 35.1198,5.50154 34.2474,5.50154 34.2474,5.41062 "
   class="fil12" /><polygon
   style="fill:#285095"
   id="polygon568"
   points="34.2474,5.50154 35.1198,5.50154 35.1198,5.59246 34.2474,5.59246 34.2474,5.50154 "
   class="fil13" /><polygon
   style="fill:#285095"
   id="polygon570"
   points="34.2474,5.59246 35.1198,5.59246 35.1198,5.6835 34.2474,5.6835 34.2474,5.59246 "
   class="fil13" /><polygon
   style="fill:#275196"
   id="polygon572"
   points="34.2474,5.6835 35.1198,5.6835 35.1198,5.77442 34.2474,5.77442 34.2474,5.6835 "
   class="fil14" /><polygon
   style="fill:#275196"
   id="polygon574"
   points="34.2474,5.77442 35.1198,5.77442 35.1198,5.86535 34.2474,5.86535 34.2474,5.77442 "
   class="fil14" /><polygon
   style="fill:#265297"
   id="polygon576"
   points="34.2474,5.86535 35.1198,5.86535 35.1198,5.95638 34.2474,5.95638 34.2474,5.86535 "
   class="fil15" /><polygon
   style="fill:#265297"
   id="polygon578"
   points="34.2474,5.95638 35.1198,5.95638 35.1198,6.04731 34.2474,6.04731 34.2474,5.95638 "
   class="fil15" /><polygon
   style="fill:#255398"
   id="polygon580"
   points="34.2474,6.04731 35.1198,6.04731 35.1198,6.13823 34.2474,6.13823 34.2474,6.04731 "
   class="fil16" /><polygon
   style="fill:#245599"
   id="polygon582"
   points="34.2474,6.13823 35.1198,6.13823 35.1198,6.22915 34.2474,6.22915 34.2474,6.13823 "
   class="fil17" /><polygon
   style="fill:#245599"
   id="polygon584"
   points="34.2474,6.22915 35.1198,6.22915 35.1198,6.32019 34.2474,6.32019 34.2474,6.22915 "
   class="fil17" /><polygon
   style="fill:#23569a"
   id="polygon586"
   points="34.2474,6.32019 35.1198,6.32019 35.1198,6.41112 34.2474,6.41112 34.2474,6.32019 "
   class="fil18" /><polygon
   style="fill:#22579b"
   id="polygon588"
   points="34.2474,6.41112 35.1198,6.41112 35.1198,6.50204 34.2474,6.50204 34.2474,6.41112 "
   class="fil19" /><polygon
   style="fill:#22579b"
   id="polygon590"
   points="34.2474,6.50204 35.1198,6.50204 35.1198,6.59308 34.2474,6.59308 34.2474,6.50204 "
   class="fil19" /><polygon
   style="fill:#20599c"
   id="polygon592"
   points="34.2474,6.59308 35.1198,6.59308 35.1198,6.684 34.2474,6.684 34.2474,6.59308 "
   class="fil20" /><polygon
   style="fill:#20599c"
   id="polygon594"
   points="34.2474,6.684 35.1198,6.684 35.1198,6.77492 34.2474,6.77492 34.2474,6.684 "
   class="fil20" /><polygon
   style="fill:#1e599d"
   id="polygon596"
   points="34.2474,6.77492 35.1198,6.77492 35.1198,6.86585 34.2474,6.86585 34.2474,6.77492 "
   class="fil21" /><polygon
   style="fill:#1e599d"
   id="polygon598"
   points="34.2474,6.86585 35.1198,6.86585 35.1198,6.95688 34.2474,6.95688 34.2474,6.86585 "
   class="fil21" /><polygon
   style="fill:#1c5b9e"
   id="polygon600"
   points="34.2474,6.95688 35.1198,6.95688 35.1198,7.04781 34.2474,7.04781 34.2474,6.95688 "
   class="fil22" /><polygon
   style="fill:#1c5b9e"
   id="polygon602"
   points="34.2474,7.04781 35.1198,7.04781 35.1198,7.13873 34.2474,7.13873 34.2474,7.04781 "
   class="fil22" /><polygon
   style="fill:#1b5c9f"
   id="polygon604"
   points="34.2474,7.13873 35.1198,7.13873 35.1198,7.22977 34.2474,7.22977 34.2474,7.13873 "
   class="fil23" /><polygon
   style="fill:#185da0"
   id="polygon606"
   points="34.2474,7.22977 35.1198,7.22977 35.1198,7.32069 34.2474,7.32069 34.2474,7.22977 "
   class="fil24" /><polygon
   style="fill:#185da0"
   id="polygon608"
   points="34.2474,7.32069 35.1198,7.32069 35.1198,7.41162 34.2474,7.41162 34.2474,7.32069 "
   class="fil24" /><polygon
   style="fill:#165ea1"
   id="polygon610"
   points="34.2474,7.41162 35.1198,7.41162 35.1198,7.50265 34.2474,7.50265 34.2474,7.41162 "
   class="fil25" /><polygon
   style="fill:#135fa2"
   id="polygon612"
   points="34.2474,7.50265 35.1198,7.50265 35.1198,7.59358 34.2474,7.59358 34.2474,7.50265 "
   class="fil26" /><polygon
   style="fill:#135fa2"
   id="polygon614"
   points="34.2474,7.59358 35.1198,7.59358 35.1198,7.6845 34.2474,7.6845 34.2474,7.59358 "
   class="fil26" /><polygon
   style="fill:#1160a3"
   id="polygon616"
   points="34.2474,7.6845 35.1198,7.6845 35.1198,7.77542 34.2474,7.77542 34.2474,7.6845 "
   class="fil27" /><polygon
   style="fill:#0d62a4"
   id="polygon618"
   points="34.2474,7.77542 35.1198,7.77542 35.1198,7.86646 34.2474,7.86646 34.2474,7.77542 "
   class="fil28" /><polygon
   style="fill:#0d62a4"
   id="polygon620"
   points="34.2474,7.86646 35.1198,7.86646 35.1198,7.95738 34.2474,7.95738 34.2474,7.86646 "
   class="fil28" /><polygon
   style="fill:#0863a5"
   id="polygon622"
   points="34.2474,7.95738 35.1198,7.95738 35.1198,8.04831 34.2474,8.04831 34.2474,7.95738 "
   class="fil29" /><polygon
   style="fill:#0863a5"
   id="polygon624"
   points="34.2474,8.04831 35.1198,8.04831 35.1198,8.13935 34.2474,8.13935 34.2474,8.04831 "
   class="fil29" /><polygon
   style="fill:#0464a6"
   id="polygon626"
   points="34.2474,8.13935 35.1198,8.13935 35.1198,8.23027 34.2474,8.23027 34.2474,8.13935 "
   class="fil30" /><polygon
   style="fill:#0464a6"
   id="polygon628"
   points="34.2474,8.23027 35.1198,8.23027 35.1198,8.32119 34.2474,8.32119 34.2474,8.23027 "
   class="fil30" /><polygon
   style="fill:#0065a7"
   id="polygon630"
   points="34.2474,8.32119 35.1198,8.32119 35.1198,8.41212 34.2474,8.41212 34.2474,8.32119 "
   class="fil31" /><polygon
   style="fill:#0065a8"
   id="polygon632"
   points="34.2474,8.41212 35.1198,8.41212 35.1198,8.50315 34.2474,8.50315 34.2474,8.41212 "
   class="fil32" /><polygon
   style="fill:#0065a8"
   id="polygon634"
   points="34.2474,8.50315 35.1198,8.50315 35.1198,8.59408 34.2474,8.59408 34.2474,8.50315 "
   class="fil32" /><polygon
   style="fill:#0067a9"
   id="polygon636"
   points="34.2474,8.59408 35.1198,8.59408 35.1198,8.685 34.2474,8.685 34.2474,8.59408 "
   class="fil33" /><polygon
   style="fill:#0067a9"
   id="polygon638"
   points="34.2474,8.685 35.1198,8.685 35.1198,8.77604 34.2474,8.77604 34.2474,8.685 "
   class="fil33" /><polygon
   style="fill:#0068aa"
   id="polygon640"
   points="34.2474,8.77604 35.1198,8.77604 35.1198,8.86696 34.2474,8.86696 34.2474,8.77604 "
   class="fil34" /><polygon
   style="fill:#0069ab"
   id="polygon642"
   points="34.2474,8.86696 35.1198,8.86696 35.1198,8.95788 34.2474,8.95788 34.2474,8.86696 "
   class="fil35" /><polygon
   style="fill:#0069ab"
   id="polygon644"
   points="34.2474,8.95788 35.1198,8.95788 35.1198,9.04881 34.2474,9.04881 34.2474,8.95788 "
   class="fil35" /><polygon
   style="fill:#006aac"
   id="polygon646"
   points="34.2474,9.04881 35.1198,9.04881 35.1198,9.13985 34.2474,9.13985 34.2474,9.04881 "
   class="fil36" /><polygon
   style="fill:#006aac"
   id="polygon648"
   points="34.2474,9.13985 35.1198,9.13985 35.1198,9.23077 34.2474,9.23077 34.2474,9.13985 "
   class="fil36" /><polygon
   style="fill:#006bad"
   id="polygon650"
   points="34.2474,9.23077 35.1198,9.23077 35.1198,9.32169 34.2474,9.32169 34.2474,9.23077 "
   class="fil37" /><polygon
   style="fill:#006bad"
   id="polygon652"
   points="34.2474,9.32169 35.1198,9.32169 35.1198,9.41273 34.2474,9.41273 34.2474,9.32169 "
   class="fil37" /><polygon
   style="fill:#006caf"
   id="polygon654"
   points="34.2474,9.41273 35.1198,9.41273 35.1198,9.50365 34.2474,9.50365 34.2474,9.41273 "
   class="fil38" /><polygon
   style="fill:#006daf"
   id="polygon656"
   points="34.2474,9.50365 35.1198,9.50365 35.1198,9.59458 34.2474,9.59458 34.2474,9.50365 "
   class="fil39" /><polygon
   style="fill:#006daf"
   id="polygon658"
   points="34.2474,9.59458 35.1198,9.59458 35.1198,9.68562 34.2474,9.68562 34.2474,9.59458 "
   class="fil39" /><polygon
   style="fill:#006fb1"
   id="polygon660"
   points="34.2474,9.68562 35.1198,9.68562 35.1198,9.77654 34.2474,9.77654 34.2474,9.68562 "
   class="fil40" /><polygon
   style="fill:#006fb2"
   id="polygon662"
   points="34.2474,9.77654 35.1198,9.77654 35.1198,9.86746 34.2474,9.86746 34.2474,9.77654 "
   class="fil41" /><polygon
   style="fill:#006fb2"
   id="polygon664"
   points="34.2474,9.86746 35.1198,9.86746 35.1198,9.95838 34.2474,9.95838 34.2474,9.86746 "
   class="fil41" /><polygon
   style="fill:#0071b3"
   id="polygon666"
   points="34.2474,9.95838 35.1198,9.95838 35.1198,10.0494 34.2474,10.0494 34.2474,9.95838 "
   class="fil42" /><polygon
   style="fill:#0071b3"
   id="polygon668"
   points="34.2474,10.0494 35.1198,10.0494 35.1198,10.1403 34.2474,10.1403 34.2474,10.0494 "
   class="fil42" /><polygon
   style="fill:#0072b4"
   id="polygon670"
   points="34.2474,10.1403 35.1198,10.1403 35.1198,10.2313 34.2474,10.2313 34.2474,10.1403 "
   class="fil43" /><polygon
   style="fill:#0072b4"
   id="polygon672"
   points="34.2474,10.2313 35.1198,10.2313 35.1198,10.3223 34.2474,10.3223 34.2474,10.2313 "
   class="fil43" /><polygon
   style="fill:#0073b5"
   id="polygon674"
   points="34.2474,10.3223 35.1198,10.3223 35.1198,10.4132 34.2474,10.4132 34.2474,10.3223 "
   class="fil44" /><polygon
   style="fill:#0073b5"
   id="polygon676"
   points="34.2474,10.4132 35.1198,10.4132 35.1198,10.5042 34.2474,10.5042 34.2474,10.4132 "
   class="fil44" /><polygon
   style="fill:#0074b6"
   id="polygon678"
   points="34.2474,10.5042 35.1198,10.5042 35.1198,10.5951 34.2474,10.5951 34.2474,10.5042 "
   class="fil45" /><polygon
   style="fill:#0075b7"
   id="polygon680"
   points="34.2474,10.5951 35.1198,10.5951 35.1198,10.6861 34.2474,10.6861 34.2474,10.5951 "
   class="fil46" /><polygon
   style="fill:#0075b7"
   id="polygon682"
   points="34.2474,10.6861 35.1198,10.6861 35.1198,10.777 34.2474,10.777 34.2474,10.6861 "
   class="fil46" /><polygon
   style="fill:#0075b8"
   id="polygon684"
   points="34.2474,10.777 35.1198,10.777 35.1198,10.868 34.2474,10.868 34.2474,10.777 "
   class="fil47" /><polygon
   style="fill:#0077b9"
   id="polygon686"
   points="34.2474,10.868 35.1198,10.868 35.1198,10.959 34.2474,10.959 34.2474,10.868 "
   class="fil48" /><polygon
   style="fill:#0077b9"
   id="polygon688"
   points="34.2474,10.959 35.1198,10.959 35.1198,11.0499 34.2474,11.0499 34.2474,10.959 "
   class="fil48" /><polygon
   style="fill:#0078bb"
   id="polygon690"
   points="34.2474,11.0499 35.1198,11.0499 35.1198,11.1408 34.2474,11.1408 34.2474,11.0499 "
   class="fil49" /><polygon
   style="fill:#0078bb"
   id="polygon692"
   points="34.2474,11.1408 35.1198,11.1408 35.1198,11.2319 34.2474,11.2319 34.2474,11.1408 "
   class="fil49" /><polygon
   style="fill:#0079bb"
   id="polygon694"
   points="34.2474,11.2319 35.1198,11.2319 35.1198,11.3228 34.2474,11.3228 34.2474,11.2319 "
   class="fil50" /><polygon
   style="fill:#0079bb"
   id="polygon696"
   points="34.2474,11.3228 35.1198,11.3228 35.1198,11.4137 34.2474,11.4137 34.2474,11.3228 "
   class="fil50" /><polygon
   style="fill:#007abd"
   id="polygon698"
   points="34.2474,11.4137 35.1198,11.4137 35.1198,11.5047 34.2474,11.5047 34.2474,11.4137 "
   class="fil51" /><polygon
   style="fill:#007bbe"
   id="polygon700"
   points="34.2474,11.5047 35.1198,11.5047 35.1198,11.5957 34.2474,11.5957 34.2474,11.5047 "
   class="fil52" /><polygon
   style="fill:#007bbe"
   id="polygon702"
   points="34.2474,11.5957 35.1198,11.5957 35.1198,11.6866 34.2474,11.6866 34.2474,11.5957 "
   class="fil52" /><polygon
   style="fill:#007cbf"
   id="polygon704"
   points="34.2474,11.6866 35.1198,11.6866 35.1198,11.7775 34.2474,11.7775 34.2474,11.6866 "
   class="fil53" /><polygon
   style="fill:#007cbf"
   id="polygon706"
   points="34.2474,11.7775 35.1198,11.7775 35.1198,11.8686 34.2474,11.8686 34.2474,11.7775 "
   class="fil53" /><polygon
   style="fill:#007dc0"
   id="polygon708"
   points="34.2474,11.8686 35.1198,11.8686 35.1198,11.9595 34.2474,11.9595 34.2474,11.8686 "
   class="fil54" /><polygon
   style="fill:#007fc2"
   id="polygon710"
   points="34.2474,11.9595 35.1198,11.9595 35.1198,12.0504 34.2474,12.0504 34.2474,11.9595 "
   class="fil55" /><polygon
   style="fill:#007fc2"
   id="polygon712"
   points="34.2474,12.0504 35.1198,12.0504 35.1198,12.1413 34.2474,12.1413 34.2474,12.0504 "
   class="fil55" /><polygon
   style="fill:#0080c3"
   id="polygon714"
   points="34.2474,12.1413 35.1198,12.1413 35.1198,12.2324 34.2474,12.2324 34.2474,12.1413 "
   class="fil56" /><polygon
   style="fill:#0080c3"
   id="polygon716"
   points="34.2474,12.2324 35.1198,12.2324 35.1198,12.3233 34.2474,12.3233 34.2474,12.2324 "
   class="fil56" /><polygon
   style="fill:#0081c4"
   id="polygon718"
   points="34.2474,12.3233 35.1198,12.3233 35.1198,12.4142 34.2474,12.4142 34.2474,12.3233 "
   class="fil57" /><polygon
   style="fill:#0081c4"
   id="polygon720"
   points="34.2474,12.4142 35.1198,12.4142 35.1198,12.5053 34.2474,12.5053 34.2474,12.4142 "
   class="fil57" /><polygon
   style="fill:#0082c6"
   id="polygon722"
   points="34.2474,12.5053 35.1198,12.5053 35.1198,12.5962 34.2474,12.5962 34.2474,12.5053 "
   class="fil58" /><polygon
   style="fill:#0083c7"
   id="polygon724"
   points="34.2474,12.5962 35.1198,12.5962 35.1198,12.6871 34.2474,12.6871 34.2474,12.5962 "
   class="fil59" /><polygon
   style="fill:#0083c7"
   id="polygon726"
   points="34.2474,12.6871 35.1198,12.6871 35.1198,12.7782 34.2474,12.7782 34.2474,12.6871 "
   class="fil59" /><polygon
   style="fill:#0085c8"
   id="polygon728"
   points="34.2474,12.7782 35.1198,12.7782 35.1198,12.8691 34.2474,12.8691 34.2474,12.7782 "
   class="fil60" /><polygon
   style="fill:#0085c9"
   id="polygon730"
   points="34.2474,12.8691 35.1198,12.8691 35.1198,12.96 34.2474,12.96 34.2474,12.8691 "
   class="fil61" /><polygon
   style="fill:#0085c9"
   id="polygon732"
   points="34.2474,12.96 35.1198,12.96 35.1198,13.0509 34.2474,13.0509 34.2474,12.96 "
   class="fil61" /><polygon
   style="fill:#0087cb"
   id="polygon734"
   points="34.2474,13.0509 35.1198,13.0509 35.1198,13.142 34.2474,13.142 34.2474,13.0509 "
   class="fil62" /><polygon
   style="fill:#0087cb"
   id="polygon736"
   points="34.2474,13.142 35.1198,13.142 35.1198,13.2329 34.2474,13.2329 34.2474,13.142 "
   class="fil62" /><polygon
   style="fill:#0088cc"
   id="polygon738"
   points="34.2474,13.2329 35.1198,13.2329 35.1198,13.3238 34.2474,13.3238 34.2474,13.2329 "
   class="fil63" /><polygon
   style="fill:#0088cc"
   id="polygon740"
   points="34.2474,13.3238 35.1198,13.3238 35.1198,13.4148 34.2474,13.4148 34.2474,13.3238 "
   class="fil63" /><polygon
   style="fill:#0089cd"
   id="polygon742"
   points="34.2474,13.4148 35.1198,13.4148 35.1198,13.5058 34.2474,13.5058 34.2474,13.4148 "
   class="fil64" /><polygon
   style="fill:#0089cd"
   id="polygon744"
   points="34.2474,13.5058 35.1198,13.5058 35.1198,13.5967 34.2474,13.5967 34.2474,13.5058 "
   class="fil64" /><polygon
   style="fill:#008ace"
   id="polygon746"
   points="34.2474,13.5967 35.1198,13.5967 35.1198,13.6876 34.2474,13.6876 34.2474,13.5967 "
   class="fil65" /><polygon
   style="fill:#008bd0"
   id="polygon748"
   points="34.2474,13.6876 35.1198,13.6876 35.1198,13.7787 34.2474,13.7787 34.2474,13.6876 "
   class="fil66" /><polygon
   style="fill:#008bd0"
   id="polygon750"
   points="34.2474,13.7787 35.1198,13.7787 35.1198,13.8696 34.2474,13.8696 34.2474,13.7787 "
   class="fil66" /><polygon
   style="fill:#008cd1"
   id="polygon752"
   points="34.2474,13.8696 35.1198,13.8696 35.1198,13.9605 34.2474,13.9605 34.2474,13.8696 "
   class="fil67" /><polygon
   style="fill:#008ed3"
   id="polygon754"
   points="34.2474,13.9605 35.1198,13.9605 35.1198,14.0515 34.2474,14.0515 34.2474,13.9605 "
   class="fil68" /><polygon
   style="fill:#008ed3"
   id="polygon756"
   points="34.2474,14.0515 35.1198,14.0515 35.1198,14.1425 34.2474,14.1425 34.2474,14.0515 "
   class="fil68" /><polygon
   style="fill:#008ed4"
   id="polygon758"
   points="34.2474,14.1425 35.1198,14.1425 35.1198,14.2334 34.2474,14.2334 34.2474,14.1425 "
   class="fil69" /><polygon
   style="fill:#008ed4"
   id="polygon760"
   points="34.2474,14.2334 35.1198,14.2334 35.1198,14.3243 34.2474,14.3243 34.2474,14.2334 "
   class="fil69" /><polygon
   style="fill:#008fd5"
   id="polygon762"
   points="34.2474,14.3243 35.1198,14.3243 35.1198,14.4153 34.2474,14.4153 34.2474,14.3243 "
   class="fil70" /><polygon
   style="fill:#008fd5"
   id="polygon764"
   points="34.2474,14.4153 35.1198,14.4153 35.1198,14.5063 34.2474,14.5063 34.2474,14.4153 "
   class="fil70" /><polygon
   style="fill:#0091d7"
   id="polygon766"
   points="34.2474,14.5063 35.1198,14.5063 35.1198,14.5972 34.2474,14.5972 34.2474,14.5063 "
   class="fil71" /><polygon
   style="fill:#0092d8"
   id="polygon768"
   points="34.2474,14.5972 35.1198,14.5972 35.1198,14.6882 23.5185,14.6882 23.5185,14.6747 34.2474,14.6747 34.2474,14.5972 "
   class="fil72" /><polygon
   style="fill:#0092d8"
   id="polygon770"
   points="23.5185,14.6882 35.1198,14.6882 35.1198,14.7792 23.5185,14.7792 23.5185,14.6882 "
   class="fil72" /><polygon
   style="fill:#0093da"
   id="polygon772"
   points="23.5185,14.7792 35.1198,14.7792 35.1198,14.8701 23.5185,14.8701 23.5185,14.7792 "
   class="fil73" /><polygon
   style="fill:#0093da"
   id="polygon774"
   points="23.5185,14.8701 35.1198,14.8701 35.1198,14.9611 23.5185,14.9611 23.5185,14.8701 "
   class="fil73" /><polygon
   style="fill:#0094db"
   id="polygon776"
   points="23.5185,14.9611 35.1198,14.9611 35.1198,15.052 23.5185,15.052 23.5185,14.9611 "
   class="fil74" /><polygon
   style="fill:#0095dd"
   id="polygon778"
   points="23.5185,15.052 35.1198,15.052 35.1198,15.143 23.5185,15.143 23.5185,15.052 "
   class="fil75" /><polygon
   style="fill:#0095dd"
   id="polygon780"
   points="23.5185,15.143 35.1198,15.143 35.1198,15.2339 23.5185,15.2339 23.5185,15.143 "
   class="fil75" /><polygon
   style="fill:#0096de"
   id="polygon782"
   points="23.5185,15.2339 35.1198,15.2339 35.1198,15.3249 23.5185,15.3249 23.5185,15.2339 "
   class="fil76" /><polygon
   style="fill:#0096de"
   id="polygon784"
   points="23.5185,15.3249 35.1198,15.3249 35.1198,15.4158 23.5185,15.4158 23.5185,15.3249 "
   class="fil76" /><polygon
   style="fill:#0098df"
   id="polygon786"
   points="23.5185,15.4158 35.1198,15.4158 35.1198,15.5067 23.5185,15.5067 23.5185,15.4158 "
   class="fil77" /><path
   style="fill:#1f1a17"
   id="path788"
   d="M 19.6326,19.5562 L 19.6326,23.65085 L 20.272177,23.65085 L 20.272177,19.94897 L 20.864215,19.94897 C 20.864215,19.94897 21.29333,19.947355 21.440792,20.140047 C 21.565407,20.303893 21.588254,20.599739 21.588254,20.799816 C 21.588254,21.014662 21.5751,21.345008 21.502754,21.466047 C 21.393946,21.650778 21.215677,21.687585 21.051369,21.687585 L 20.660792,21.687585 L 20.660792,22.050816 L 21.222023,22.050816 C 21.222023,22.050816 21.728677,22.073085 21.947215,21.851316 C 22.21433,21.578431 22.281946,21.214278 22.281946,20.726086 C 22.281946,20.281048 22.1211,19.833701 21.791677,19.682546 C 21.519254,19.5562 21.027946,19.5562 21.027946,19.5562 L 19.632596,19.5562 L 19.6326,19.5562 z"
   class="fil1" /><polygon
   style="fill:#1f1a17"
   id="polygon790"
   points="22.784,23.6508 23.4245,23.6508 23.4245,19.5562 22.784,19.5562 22.784,23.6508 "
   class="fil1" /><polygon
   style="fill:#1f1a17"
   id="polygon792"
   points="26.8227,20.5101 27.9922,23.5753 27.321,25.2189 27.8514,25.2189 29.7839,20.5101 29.1921,20.5101 28.3499,22.8052 27.566,20.5101 26.8227,20.5101 "
   class="fil1" /><path
   style="fill:#1f1a17"
   id="path794"
   d="M 30.2656,23.6248 L 30.2656,23.238262 C 30.2656,23.238262 30.941292,23.264339 31.0816,23.264339 C 31.393946,23.264339 31.549254,23.197647 31.666138,23.072685 C 31.735484,22.998146 31.798484,22.66307 31.798484,22.5448 C 31.798484,22.4248 31.776215,22.168069 31.729484,22.064338 C 31.681484,21.960723 31.572792,21.864838 31.409061,21.851338 C 31.293099,21.840722 31.112061,21.818338 30.902638,21.807838 C 30.607369,21.794222 30.412484,21.639261 30.317869,21.529992 C 30.22533,21.418184 30.100138,21.252954 30.100138,20.740646 C 30.100138,20.230184 30.232369,19.944608 30.364484,19.810877 C 30.497638,19.677262 30.692176,19.618992 30.840676,19.592915 C 31.011214,19.562915 31.292176,19.560953 31.292176,19.560953 L 32.187099,19.587723 L 32.187099,19.974146 C 32.187099,19.974146 31.534022,19.948992 31.393945,19.948992 C 31.081599,19.948992 30.988022,20.014761 30.871137,20.140069 C 30.802829,20.215761 30.748945,20.421492 30.748945,20.541146 C 30.748945,20.658838 30.762906,20.898492 30.809176,21.002223 C 30.855791,21.106185 30.965407,21.201723 31.128214,21.216146 C 31.244176,21.224915 31.425329,21.248684 31.634868,21.258838 C 31.931522,21.273377 32.12606,21.426492 32.219406,21.537723 C 32.312983,21.648954 32.438175,21.8833 32.438175,22.393646 C 32.438175,22.904108 32.305021,23.2693 32.17279,23.400956 C 32.040675,23.53561 31.846367,23.594687 31.697636,23.619841 C 31.526059,23.65088 31.245213,23.65088 31.245213,23.65088 L 30.265598,23.624803 L 30.2656,23.6248 z"
   class="fil1" /><path
   style="fill:#1f1a17"
   id="path796"
   d="M 33.752,19.949 L 33.113462,19.949 L 33.113462,22.95362 C 33.113462,22.95362 33.128808,23.227658 33.144039,23.323543 C 33.160308,23.420351 33.300731,23.650889 33.666731,23.650889 L 34.328808,23.63635 L 34.328808,23.25085 C 34.328808,23.25085 34.148693,23.26435 34.040808,23.26435 C 33.931193,23.26435 33.797808,23.25662 33.775539,23.070619 C 33.752,22.886696 33.752,22.664811 33.752,22.664811 L 33.752,20.895621 L 34.473038,20.895621 L 34.473038,20.510121 L 33.752,20.510121 L 33.752,19.949006 L 33.752,19.949 z"
   class="fil1" /><polygon
   style="fill:#1f1a17"
   id="polygon798"
   points="39.9179,23.6508 40.5572,23.6508 40.5572,20.5101 39.9179,20.5101 39.9179,23.6508 "
   class="fil1" /><polygon
   style="fill:#1f1a17"
   id="polygon800"
   points="39.9179,20.1256 40.5572,20.1256 40.5572,19.5562 39.9179,19.5562 39.9179,20.1256 "
   class="fil1" /><path
   style="fill:#1f1a17"
   id="path802"
   d="M 42.5761,20.4839 C 43.011331,20.4839 43.348485,20.581746 43.529638,20.728054 C 43.712638,20.875285 43.93683,21.184285 43.93683,22.079904 C 43.93683,22.97575 43.712638,23.284754 43.529638,23.432904 C 43.348484,23.579212 43.01133,23.677058 42.5761,23.677058 C 42.140754,23.677058 41.804177,23.579212 41.622562,23.432904 C 41.440485,23.28475 41.215716,22.97575 41.215716,22.079904 C 41.215716,21.184289 41.440485,20.875284 41.622562,20.728054 C 41.804177,20.581746 42.140754,20.4839 42.5761,20.4839 z M 42.138792,21.086438 C 42.050638,21.193976 41.944023,21.422438 41.944023,22.0799 C 41.944023,22.739438 42.050638,22.966054 42.138792,23.073592 C 42.225446,23.18113 42.386754,23.253823 42.596407,23.253823 C 42.806176,23.253823 42.966792,23.181131 43.055522,23.073592 C 43.143214,22.966054 43.250637,22.739438 43.250637,22.0799 C 43.250637,21.422438 43.143214,21.193977 43.055522,21.086438 C 42.966791,20.9789 42.806176,20.90713 42.596407,20.90713 C 42.386753,20.90713 42.225445,20.978899 42.138792,21.086438 z"
   class="fil1" /><path
   style="fill:#1f1a17"
   id="path804"
   d="M 45.2609,20.9522 L 45.886977,20.925546 C 46.051746,20.925546 46.243515,20.970085 46.336977,21.087777 C 46.424554,21.1997 46.479362,21.332392 46.479362,21.547469 L 46.479362,23.645969 L 47.119054,23.645969 L 47.119054,21.495089 C 47.119054,21.087781 46.994092,20.852051 46.806131,20.703781 C 46.537977,20.490781 46.058439,20.51005 46.058439,20.51005 L 44.625939,20.537166 L 44.625939,23.645976 L 45.260901,23.645976 L 45.260901,20.952206 L 45.2609,20.9522 z"
   class="fil1" /><path
   style="fill:#1f1a17"
   id="path806"
   d="M 38.6472,19.949 L 38.007046,19.949 L 38.007046,22.95362 C 38.007046,22.95362 38.022277,23.227658 38.038546,23.323543 C 38.053777,23.420351 38.193161,23.650889 38.560084,23.650889 L 39.222622,23.63635 L 39.222622,23.25085 C 39.222622,23.25085 39.043314,23.26435 38.934391,23.26435 C 38.826045,23.26435 38.692314,23.25662 38.669583,23.070619 C 38.647198,22.886696 38.647198,22.664811 38.647198,22.664811 L 38.647198,20.895621 L 39.366967,20.895621 L 39.366967,20.510121 L 38.647198,20.510121 L 38.647198,19.949006 L 38.6472,19.949 z"
   class="fil1" /><path
   style="fill:#1f1a17"
   id="path808"
   d="M 25.8482,21.5475 C 25.8482,21.332423 25.793277,21.199731 25.705815,21.087808 C 25.612353,20.970116 25.4192,20.925577 25.255353,20.925577 L 24.412353,20.952231 L 24.412353,20.537193 L 25.427163,20.510077 C 25.427163,20.510077 25.907278,20.490808 26.175548,20.703808 C 26.361894,20.852077 26.487548,21.087808 26.487548,21.495116 L 26.487548,23.615996 L 25.262508,23.642189 C 25.262508,23.642189 24.707277,23.644958 24.428623,23.530727 C 24.155969,23.420304 24.007469,23.11615 24.007469,22.694881 C 24.007469,22.288035 24.132777,22.050804 24.3197,21.901612 C 24.5882,21.689535 25.067046,21.709958 25.067046,21.709958 L 25.458661,21.709958 L 25.458661,22.073073 L 25.238969,22.073073 C 25.075123,22.073073 24.906084,22.103073 24.812969,22.220304 C 24.724469,22.332689 24.677738,22.428573 24.677738,22.642612 C 24.677738,22.924381 24.732661,23.050381 24.864892,23.146266 C 24.981892,23.23142 25.191315,23.249881 25.425892,23.249881 L 25.8482,23.223688 L 25.8482,21.547498 L 25.8482,21.5475 z"
   class="fil1" /><path
   style="fill:#1f1a17"
   id="path810"
   d="M 36.6231,21.5475 C 36.6231,21.332423 36.5691,21.199731 36.481638,21.087808 C 36.387138,20.970116 36.194907,20.925577 36.031292,20.925577 L 35.1891,20.952231 L 35.1891,20.537193 L 36.20195,20.510077 C 36.20195,20.510077 36.682065,20.490808 36.95045,20.703808 C 37.137488,20.852077 37.261758,21.087808 37.261758,21.495116 L 37.261758,23.615996 L 36.038338,23.642189 C 36.038338,23.642189 35.483107,23.644958 35.2033,23.530727 C 34.9318,23.420304 34.782377,23.11615 34.782377,22.694881 C 34.782377,22.288035 34.908377,22.050804 35.094377,21.901612 C 35.362992,21.689535 35.842992,21.709958 35.842992,21.709958 L 36.233454,21.709958 L 36.233454,22.073073 L 36.013877,22.073073 C 35.851069,22.073073 35.680415,22.103073 35.587646,22.220304 C 35.500184,22.332689 35.452531,22.428573 35.452531,22.642612 C 35.452531,22.924381 35.508493,23.050381 35.639685,23.146266 C 35.75657,23.23142 35.967031,23.249881 36.200916,23.249881 L 36.623108,23.223688 L 36.623108,21.547498 L 36.6231,21.5475 z"
   class="fil1" /><path
   style="fill:#1f1a17"
   id="path812"
   d="M 48.2774,23.6751 C 48.444015,23.6751 48.600938,23.610139 48.718631,23.493023 C 48.836208,23.374869 48.901631,23.217946 48.901631,23.051446 C 48.901631,22.884715 48.836208,22.727792 48.718631,22.609754 C 48.600939,22.493446 48.444016,22.4286 48.2774,22.4286 C 47.934477,22.4286 47.654208,22.7076 47.654208,23.051446 C 47.654208,23.217946 47.717669,23.374869 47.837208,23.493023 C 47.9549,23.610138 48.110323,23.6751 48.2774,23.6751 z M 47.758285,23.051446 C 47.758285,22.911831 47.812516,22.782023 47.910362,22.684292 C 48.008208,22.586446 48.138939,22.5321 48.2774,22.5321 C 48.4169,22.5321 48.547054,22.586446 48.644554,22.684292 C 48.7424,22.782023 48.797439,22.91183 48.797439,23.051446 C 48.797439,23.337023 48.564131,23.569523 48.277401,23.569523 C 48.138939,23.569523 48.008209,23.516215 47.910363,23.418369 C 47.812517,23.3196 47.758286,23.189907 47.758286,23.051446 L 47.758285,23.051446 z"
   class="fil1" /><path
   style="fill:#1f1a17"
   id="path814"
   d="M 48.5855,23.3409 C 48.575808,23.336977 48.569462,23.327285 48.565077,23.310785 C 48.562192,23.299131 48.559192,23.282746 48.559192,23.257592 L 48.555846,23.169439 C 48.554,23.126862 48.545692,23.095939 48.530692,23.075515 C 48.520539,23.062823 48.506462,23.052208 48.488462,23.042631 C 48.510385,23.027977 48.528731,23.011592 48.542808,22.991169 C 48.559192,22.964054 48.569462,22.9284 48.569462,22.885592 C 48.569462,22.803439 48.535077,22.745169 48.466308,22.715284 C 48.431461,22.699707 48.388308,22.690938 48.334077,22.690938 L 48.012154,22.690938 L 48.012154,23.386476 L 48.132154,23.386476 L 48.132154,23.101707 L 48.321962,23.101707 C 48.356,23.101707 48.382077,23.105515 48.397538,23.111399 C 48.420731,23.123861 48.433885,23.148207 48.435846,23.184899 L 48.441154,23.296361 C 48.442077,23.323477 48.444038,23.3409 48.445885,23.351631 C 48.449346,23.361208 48.451769,23.3709 48.455577,23.377708 L 48.460538,23.386477 L 48.594615,23.386477 L 48.594615,23.345746 L 48.5855,23.3409 L 48.5855,23.3409 z M 48.445885,22.894362 C 48.445885,22.932093 48.435847,22.959323 48.416924,22.972824 C 48.394654,22.9884 48.364077,22.995093 48.325308,22.995093 L 48.132154,22.995093 L 48.132154,22.798478 L 48.337539,22.798478 C 48.364655,22.798478 48.388308,22.803439 48.404693,22.81117 C 48.433424,22.825593 48.445885,22.852709 48.445885,22.894362 L 48.445885,22.894362 z"
   class="fil1" /><path
   style="fill:#1f1a17"
   id="path816"
   d="M 52.8509,20.085 C 52.859554,20.557154 52.836362,20.805577 52.677938,21.041769 C 52.537976,21.249115 52.261053,21.438461 51.649398,21.438461 L 50.890513,21.41573 C 50.770859,21.417692 50.460936,21.452538 50.314167,21.610384 C 50.188398,21.74573 50.178705,21.847384 50.166013,22.208653 L 50.166013,23.268233 L 52.745663,23.268233 L 52.745663,23.787348 L 49.925893,23.787348 L 49.790316,23.786425 C 49.598547,23.786425 49.410124,23.656617 49.410124,23.396079 L 49.410124,22.60581 C 49.423624,21.682848 49.489509,21.55039 49.690047,21.30819 C 49.82897,21.140652 50.155855,20.953728 50.552432,20.933305 C 50.630432,20.929959 50.777201,20.919805 50.982586,20.925574 C 51.132701,20.931921 51.282817,20.936305 51.348586,20.937228 C 51.699701,20.941151 51.828124,20.87619 51.923894,20.750305 C 52.033856,20.608843 52.092471,20.441305 52.092471,20.167267 C 52.092471,19.910536 52.040202,19.668459 51.942356,19.55619 C 51.823741,19.426267 51.710433,19.339152 51.380664,19.339152 C 50.546664,19.337191 49.572814,19.358998 49.572814,19.358998 L 49.572814,18.86896 C 49.572814,18.86896 50.524506,18.828345 51.494894,18.814268 C 52.099279,18.803537 52.432394,18.964383 52.601434,19.18523 C 52.780165,19.415768 52.843165,19.633615 52.850896,20.084999 L 52.8509,20.085 z"
   class="fil1" /><path
   style="fill:#1f1a17"
   id="path818"
   d="M 72.2836,14.91 C 72.2836,14.458731 72.623985,14.118346 73.060369,14.118346 C 73.492369,14.118346 73.832177,14.458731 73.832177,14.91 C 73.832177,15.369692 73.492369,15.707192 73.060369,15.707192 C 72.623984,15.707192 72.2836,15.369692 72.2836,14.91 z M 73.060485,15.866423 C 73.580408,15.866423 74.023947,15.463154 74.023947,14.91 C 74.023947,14.363077 73.580409,13.959462 73.06037,13.959462 C 72.535947,13.959462 72.091716,14.363077 72.091716,14.91 C 72.091716,15.463154 72.535947,15.866423 73.060485,15.866423 z M 72.858793,14.986038 L 73.050678,14.986038 L 73.340178,15.463153 L 73.527216,15.463153 L 73.214293,14.978884 C 73.375485,14.958461 73.499524,14.872269 73.499524,14.675999 C 73.499524,14.45873 73.370755,14.363076 73.111139,14.363076 L 72.692177,14.363076 L 72.692177,15.463156 L 72.858792,15.463156 L 72.858792,14.986041 L 72.858793,14.986038 z M 72.858793,14.844576 L 72.858793,14.504191 L 73.085985,14.504191 C 73.201716,14.504191 73.325754,14.529576 73.325754,14.665729 C 73.325754,14.834537 73.199292,14.844575 73.057831,14.844575 L 72.858793,14.844575 L 72.858793,14.844576 z"
   class="fil1" />
</svg>